<svg width="37" height="37" viewBox="0 0 37 37" fill="none" xmlns="http://www.w3.org/2000/svg">
<g clip-path="url(#clip0_1358_814)">
<path d="M0.500413 30.3662C0.591962 29.7535 0.662384 29.1409 0.789145 28.5423C1.09196 27.0916 1.63422 25.7465 2.75393 24.7042C3.58492 23.9366 4.57788 23.5704 5.69055 23.5564C7.70464 23.5352 9.71872 23.5423 11.7328 23.5564C12.0145 23.5564 12.1694 23.4578 12.3244 23.2395C12.9229 22.3733 13.5075 21.493 14.1624 20.669C15.5286 18.9578 17.3455 18.0282 19.5215 17.9437C21.4511 17.8733 23.3877 17.8521 25.3173 17.9437C28.4652 18.0916 30.9934 19.4085 32.6272 22.1831C33.0004 22.824 33.2328 23.5493 33.5286 24.2324C33.5849 24.3592 33.6272 24.5071 33.7258 24.5845C35.1413 25.6409 35.8666 27.1127 36.268 28.7817C36.5075 29.7958 36.4934 30.824 36.4863 31.8521C36.4863 32.3099 36.4863 32.7676 36.4863 33.2254C36.4863 33.824 36.2328 34.0845 35.6413 34.0845C34.8455 34.0845 34.0497 34.0775 33.2539 34.0916C33.1131 34.0916 32.937 34.169 32.8384 34.2676C32.2821 34.8733 31.6201 35.2817 30.8032 35.4296C30.7751 35.4366 30.7469 35.4719 30.7258 35.493C30.3737 35.493 30.0215 35.493 29.6694 35.493C29.6131 35.4719 29.5638 35.4366 29.5075 35.4296C28.7328 35.2888 28.0779 34.9155 27.5638 34.331C27.4018 34.1409 27.2328 34.0845 26.9934 34.0845C21.5215 34.0916 16.0497 34.0916 10.5779 34.0845C10.0215 34.0845 9.50745 34.0704 9.17647 34.6127C9.12717 34.6972 9.02858 34.7676 8.92999 34.8099C8.41591 35.0493 7.89478 35.2747 7.38069 35.5C7.02858 35.5 6.67647 35.5 6.32436 35.5C6.29619 35.4789 6.26802 35.4507 6.23985 35.4437C5.38774 35.2958 4.70464 34.8803 4.13422 34.2324C4.05675 34.1479 3.89478 34.0986 3.77506 34.0986C3.0145 34.0845 2.26098 34.0704 1.50041 34.0986C0.986328 34.1197 0.655342 33.9437 0.486328 33.4578C0.500413 32.4296 0.500413 31.4014 0.500413 30.3662ZM23.9018 24.9789C20.3173 24.9789 16.768 24.9789 13.2046 24.9789C13.2046 26.6197 13.2046 28.2254 13.2046 29.8592C16.7751 29.8592 20.3314 29.8592 23.9018 29.8592C23.9018 28.2324 23.9018 26.6197 23.9018 24.9789ZM11.7469 24.9789C11.6765 24.9648 11.6413 24.9578 11.6131 24.9578C9.69055 24.9578 7.76802 24.9507 5.85253 24.9578C5.24689 24.9648 4.66943 25.0916 4.1483 25.4296C3.38774 25.9226 2.92999 26.6409 2.599 27.4578C2.28915 28.2254 2.09196 29.0211 2.02154 29.8733C2.66943 29.8733 3.27506 29.8803 3.88069 29.8662C3.98633 29.8662 4.11309 29.7747 4.19055 29.6902C5.64126 28.0493 8.07084 28.0493 9.53562 29.7042C9.599 29.7747 9.6976 29.8662 9.7821 29.8662C10.437 29.8803 11.0849 29.8733 11.7539 29.8733C11.7469 28.2254 11.7469 26.6127 11.7469 24.9789ZM35.0145 29.8662C34.606 26.6338 32.7117 24.5916 29.3032 25.0282C26.6976 25.3592 25.5004 27.8592 25.4229 29.8662C28.606 29.8662 31.8032 29.8662 35.0145 29.8662ZM23.8948 19.3521C23.8314 19.3451 23.7891 19.331 23.7469 19.331C22.4441 19.331 21.1483 19.3099 19.8455 19.331C16.9159 19.3803 15.2187 21.1831 13.9018 23.5212C17.2328 23.5212 20.5638 23.5212 23.8948 23.5212C23.8948 22.1197 23.8948 20.7465 23.8948 19.3521ZM26.6835 31.3099C21.2469 31.3099 15.7962 31.3099 10.3525 31.3099C10.3525 31.7817 10.3525 32.2183 10.3525 32.669C15.8173 32.669 21.261 32.669 26.6835 32.669C26.6835 32.2042 26.6835 31.7606 26.6835 31.3099ZM31.7962 23.7113C30.7187 21 28.0075 19.3944 25.3525 19.4226C25.3525 21.5423 25.3525 23.662 25.3525 25.8381C27.0497 23.6972 29.261 23.2747 31.7962 23.7113ZM4.76802 31.9789C4.76098 33.1338 5.6976 34.0845 6.84548 34.0916C7.98633 34.0986 8.93703 33.1479 8.94407 31.993C8.94407 30.8381 8.0145 29.8873 6.86661 29.8803C5.72576 29.8662 4.77506 30.8169 4.76802 31.9789ZM29.4722 31.2817C29.2117 31.2817 29.0004 31.2817 28.7891 31.2817C28.1413 31.2817 28.0145 31.4226 28.0779 32.0775C28.0849 32.1831 28.106 32.2888 28.1201 32.3873C28.3032 33.5211 29.4863 34.2817 30.6553 34.0212C31.768 33.7747 32.5075 32.5704 32.2046 31.493C32.1835 31.4085 32.092 31.2888 32.0286 31.2888C31.6483 31.2676 31.268 31.2817 30.8737 31.2817C30.8737 31.5493 30.8807 31.7606 30.8737 31.9648C30.8596 32.3803 30.5849 32.669 30.2046 32.6831C29.8173 32.6972 29.5004 32.4085 29.4793 31.9859C29.4582 31.7676 29.4722 31.5423 29.4722 31.2817ZM33.6624 32.662C34.1342 32.662 34.606 32.662 35.0638 32.662C35.0638 32.1902 35.0638 31.7395 35.0638 31.2958C34.5708 31.2958 34.106 31.2958 33.6624 31.2958C33.6624 31.7606 33.6624 32.1972 33.6624 32.662ZM3.35957 31.3028C2.90886 31.3028 2.45112 31.3028 1.97929 31.3028C1.97929 31.7676 1.97929 32.2113 1.97929 32.669C2.45816 32.669 2.92295 32.669 3.35957 32.669C3.35957 32.2042 3.35957 31.7606 3.35957 31.3028Z" fill="#007AFF"/>
<path d="M0.499642 1.97181C1.22499 1.22533 1.93626 0.47181 2.6757 -0.260585C3.02781 -0.605655 3.38697 -0.570444 3.76021 -0.204247C4.3095 0.338007 4.85176 0.894345 5.40809 1.42956C5.5419 1.55632 5.69683 1.67603 5.8588 1.76054C9.97147 3.91547 14.0842 6.06336 18.1968 8.21829C18.394 8.32392 18.5419 8.33096 18.7461 8.22533C22.8588 6.06336 26.9856 3.91547 31.1123 1.7535C31.2743 1.66899 31.4292 1.54927 31.556 1.42251C32.0912 0.901387 32.6123 0.359134 33.1475 -0.161993C33.5982 -0.605655 33.9363 -0.605655 34.387 -0.161993C34.9715 0.415472 35.5489 0.992936 36.1264 1.57744C36.563 2.01406 36.563 2.38026 36.1405 2.82392C36.1264 2.83801 36.1053 2.85913 36.0912 2.87322C34.7884 3.94364 33.9574 5.32392 33.2954 6.87322C32.2743 9.26054 31.1334 11.5915 30.0419 13.9436C29.9926 14.0493 29.9503 14.1549 29.894 14.2887C30.0912 14.3943 30.2743 14.4859 30.4574 14.5845C31.4433 15.0986 32.4292 15.6056 33.4151 16.1197C33.7954 16.3169 33.9785 16.6127 33.9222 16.9225C33.8306 17.4436 33.3306 17.676 32.8165 17.4084C31.7672 16.8732 30.718 16.3239 29.6687 15.7746C29.5489 15.7112 29.4151 15.6549 29.2672 15.5845C29.1334 15.8662 29.0067 16.1267 28.8799 16.3873C28.6616 16.831 28.2743 17 27.9081 16.8239C27.5137 16.6338 27.4011 16.2465 27.5982 15.7817C27.6616 15.6408 27.725 15.507 27.7884 15.3662C27.8518 15.2324 27.9151 15.0915 27.9926 14.9296C27.8799 14.8662 27.7884 14.8098 27.6827 14.7535C24.7039 13.2112 21.725 11.669 18.7461 10.1127C18.5208 9.99294 18.3588 9.99998 18.1334 10.1127C15.1546 11.6619 12.1757 13.2042 9.19683 14.7465C9.10528 14.7958 9.01373 14.845 8.88697 14.9155C9.11232 15.3943 9.33063 15.8732 9.55598 16.345C9.71795 16.6972 9.89401 17.0422 10.0489 17.3943C10.2461 17.838 10.1194 18.2465 9.74612 18.4084C9.35176 18.5845 8.98556 18.4296 8.77429 17.9859C8.43626 17.2887 8.11232 16.5915 7.78133 15.8943C7.73204 15.7887 7.6757 15.6901 7.61232 15.5704C7.32359 15.7183 7.05598 15.8521 6.78838 15.9929C5.1264 16.8521 3.46443 17.7112 1.80246 18.5704C1.09119 18.9366 0.802459 18.845 0.478516 18.1479C0.478516 18.1267 0.478516 18.0986 0.478516 18.0774C0.570065 17.676 0.844713 17.4648 1.19683 17.2887C3.0419 16.345 4.87288 15.3873 6.71091 14.4366C6.8095 14.3873 6.90809 14.3239 7.01373 14.2676C5.8095 11.6408 4.57711 9.05632 3.42922 6.4366C2.90105 5.17603 2.22499 4.04927 1.16866 3.16899C0.922178 2.95772 0.724995 2.69716 0.499642 2.46477C0.499642 2.3028 0.499642 2.14082 0.499642 1.97181ZM28.6334 13.6267C29.6757 11.4366 30.7039 9.28167 31.7391 7.11265C30.9081 6.28871 30.0982 5.49294 29.2954 4.68308C29.1264 4.51406 29.0067 4.49294 28.7884 4.60561C25.9715 6.07744 23.1405 7.53519 20.3165 8.99294C20.232 9.03519 20.1475 9.09153 20.0278 9.16195C22.9151 10.6619 25.7602 12.1408 28.6334 13.6267ZM8.3095 13.6127C11.1898 12.1267 14.0278 10.6549 16.894 9.16899C16.8165 9.11265 16.7813 9.08449 16.7461 9.06336C13.8658 7.56336 10.9785 6.0704 8.09823 4.5704C7.90105 4.46477 7.80246 4.54927 7.68274 4.67603C6.95035 5.41547 6.21795 6.16195 5.47147 6.8873C5.28133 7.0704 5.25316 7.21125 5.37288 7.45772C6.29542 9.3873 7.21091 11.3169 8.1264 13.2535C8.16866 13.3521 8.23204 13.4648 8.3095 13.6127ZM4.59119 5.66899C5.24612 5.01406 5.87992 4.3873 6.52781 3.73942C6.13345 3.52815 5.71795 3.3028 5.28838 3.07744C4.90105 3.47181 4.53485 3.82392 4.18978 4.2042C4.11936 4.28167 4.08415 4.45773 4.1264 4.56336C4.26725 4.94364 4.43626 5.30984 4.59119 5.66899ZM32.3658 5.66899C32.5349 5.28167 32.7109 4.88026 32.8729 4.47181C32.894 4.40843 32.8588 4.28871 32.8095 4.23237C32.4433 3.84505 32.063 3.45772 31.6757 3.06336C31.232 3.3028 30.8165 3.52815 30.4292 3.73237C31.0842 4.39434 31.718 5.02111 32.3658 5.66899ZM3.23204 1.3028C2.91514 1.6197 2.59119 1.9366 2.29542 2.23237C2.58415 2.52815 2.89401 2.84505 3.15457 3.11265C3.47852 2.79575 3.79542 2.48589 4.09823 2.19012C3.80246 1.89434 3.49964 1.57744 3.23204 1.3028ZM34.6898 2.24646C34.3729 1.92251 34.056 1.59857 33.7672 1.30984C33.4644 1.60561 33.1475 1.91547 32.8729 2.19012C33.1757 2.49998 33.4926 2.81688 33.7884 3.1197C34.0912 2.83096 34.4081 2.52111 34.6898 2.24646Z" fill="#007AFF"/>
<path d="M9.98644 20.2887C9.99349 19.8873 10.3033 19.5986 10.7118 19.6056C11.0921 19.6126 11.3949 19.9366 11.3808 20.3098C11.3738 20.676 11.0428 21 10.6836 21.007C10.2963 21.014 9.9794 20.6901 9.98644 20.2887Z" fill="#007AFF"/>
<path d="M36.4218 18.0986C36.4289 18.5 36.112 18.8239 35.7246 18.8169C35.3655 18.8169 35.0345 18.4788 35.0275 18.1197C35.0204 17.7324 35.3444 17.4014 35.7387 17.4014C36.112 17.4014 36.4218 17.7183 36.4218 18.0986Z" fill="#007AFF"/>
<path d="M15.6548 27.0705C15.7816 27.0705 15.9154 27.0564 16.0421 27.0705C16.4224 27.1057 16.683 27.4015 16.6759 27.7817C16.6689 28.1409 16.4154 28.4296 16.0492 28.4578C15.7816 28.4789 15.5069 28.4789 15.2393 28.4578C14.8661 28.4367 14.5774 28.1198 14.5703 27.7677C14.5703 27.4155 14.859 27.0986 15.2252 27.0705C15.3731 27.0634 15.514 27.0705 15.6548 27.0705Z" fill="#007AFF"/>
<path d="M6.87278 31.2887C7.25306 31.2957 7.55588 31.6126 7.54883 31.9929C7.54179 32.3732 7.23897 32.6831 6.85165 32.6831C6.46433 32.6831 6.1263 32.338 6.14742 31.9577C6.16855 31.5915 6.49954 31.2816 6.87278 31.2887Z" fill="#007AFF"/>
</g>
<defs>
<clipPath id="clip0_1358_814">
<rect width="36" height="36" fill="white" transform="translate(0.5 0.5)"/>
</clipPath>
</defs>
</svg>
