<svg width="37" height="37" viewBox="0 0 37 37" fill="none" xmlns="http://www.w3.org/2000/svg">
<g clip-path="url(#clip0_1358_823)">
<path d="M0.0786133 27.4018C0.280415 27.1423 0.460595 26.8541 0.691226 26.6162C1.38312 25.9027 2.08942 25.2036 2.79573 24.4973C3.40834 23.8847 3.89843 23.8487 4.62636 24.382C5.10924 23.9568 5.39032 23.4234 5.40474 22.7676C5.42636 22.0757 5.41195 21.3766 5.4624 20.6847C5.51285 20.0144 5.85159 19.4595 6.31285 18.9838C7.12005 18.1622 7.93447 17.355 8.74888 16.5405C9.26059 16.0288 9.88762 15.7622 10.63 15.6685C10.2336 14.8613 10.3489 14.018 10.3417 13.182C10.3345 12.382 10.3417 11.5748 10.3489 10.7748C10.3561 9.9964 10.6588 9.33334 11.1921 8.77118C11.5597 8.38199 11.9561 8.00721 12.3309 7.61802C12.7849 7.14235 12.9939 6.58019 12.9507 5.97478C12.6408 5.82343 12.3453 5.72253 12.1074 5.54235C11.8264 5.33334 11.7327 5.00181 11.7327 4.64865C11.7399 3.4955 11.7327 2.34955 11.7327 1.1964C11.7327 0.468474 12.2228 -0.00720215 12.9579 -0.00720215C16.266 -0.00720215 19.5741 -0.00720215 22.8822 -0.00720215C23.6318 -0.00720215 24.093 0.454059 24.093 1.20361C24.093 2.25586 24.093 3.31532 24.093 4.36757C24.093 5.36937 23.9201 5.61442 22.9543 5.91712C22.8678 6.60181 23.0119 7.22163 23.466 7.75496C23.9921 8.37478 24.23 9.0955 24.23 9.90271C24.23 11.8198 24.2228 13.7369 24.2372 15.6541C24.2372 15.8342 24.3381 16.0072 24.4101 16.2234C25.1885 15.7478 25.9309 15.5604 26.7453 15.7405C27.3146 15.8631 27.7975 16.1297 28.2083 16.5333C29.0228 17.3405 29.8372 18.155 30.6444 18.9766C31.1777 19.5171 31.3363 19.8703 31.5741 20.9514C32.0858 20.9658 32.3597 21.1676 32.3525 21.5207C32.3381 21.8739 32.057 22.0757 31.5885 22.0396C31.4804 22.9333 31.6029 23.7478 32.3381 24.3676C33.1525 23.8414 33.5633 23.8847 34.2408 24.555C34.9831 25.3045 35.7327 26.0469 36.475 26.7964C37.0516 27.3802 37.0588 28.0144 36.475 28.591C34.1687 30.9117 31.8552 33.2252 29.5417 35.5387C28.9435 36.1369 28.3164 36.1369 27.7183 35.5387C26.9543 34.7748 26.1903 34.0108 25.4336 33.2469C24.8354 32.6414 24.7921 32.1586 25.2822 31.4595C24.8282 30.8613 24.2228 30.5514 23.4804 30.4937C22.7813 30.436 22.1903 30.1478 21.6858 29.6721C21.0876 29.0955 20.5038 28.5117 19.9201 27.9279C19.6462 27.6469 19.6246 27.3369 19.848 27.0991C20.0786 26.8541 20.4029 26.8757 20.6984 27.164C21.2534 27.7117 21.8083 28.2595 22.3561 28.8144C22.7164 29.1748 23.1489 29.3838 23.6606 29.427C24.4606 29.4919 25.1669 29.8018 25.7435 30.3712C25.8444 30.4721 25.9164 30.5946 25.9885 30.6883C27.8696 28.8144 29.693 26.9982 31.5453 25.1604C31.466 25.0739 31.3651 24.9586 31.2642 24.8433C30.7885 24.2883 30.5074 23.6541 30.4858 22.9189C30.4714 22.3784 30.4714 21.8378 30.4714 21.2973C30.4714 20.7135 30.3056 20.1874 29.8804 19.7694C29.066 18.955 28.2588 18.1333 27.4372 17.3261C26.8318 16.7279 26.0462 16.6126 25.2822 17.009C25.6065 17.3333 25.9237 17.6577 26.2336 17.9748C26.3417 18.0829 26.457 18.191 26.5651 18.3063C26.8606 18.6162 26.875 18.9117 26.6228 19.1568C26.3921 19.3802 26.0822 19.3514 25.8011 19.0775C25.3831 18.6667 24.9723 18.2487 24.5543 17.8306C24.4678 17.7442 24.4029 17.6432 24.2588 17.4703C24.2444 17.6865 24.23 17.7802 24.23 17.8811C24.23 18.9478 24.23 20.0144 24.23 21.0811C24.23 22.5369 23.1993 23.3514 21.7795 23.0198C21.7435 23.0126 21.7074 23.0198 21.6354 23.0198C21.6354 23.3297 21.621 23.6396 21.6354 23.9423C21.7291 25.3838 20.5038 26.4505 19.0047 25.9243C18.7957 26.5874 18.3849 27.0703 17.7074 27.2937C17.6065 27.3297 17.5201 27.4451 17.4408 27.5243C16.7705 28.1946 16.1002 28.8649 15.4372 29.5351C14.8894 30.0901 14.2408 30.4432 13.448 30.5081C12.7273 30.5658 12.1507 30.8829 11.7038 31.4523C12.1867 32.2811 12.1435 32.6559 11.4588 33.3405C10.7309 34.0685 10.0029 34.8036 9.27501 35.5315C8.65519 36.1514 8.04258 36.1586 7.42996 35.546C5.93807 34.0541 4.44618 32.5622 2.9615 31.0631C2.88222 30.9838 2.80294 30.9117 2.74528 30.8252C2.60114 30.5946 2.61555 30.364 2.80294 30.1622C2.99753 29.9532 3.24258 29.9315 3.48762 30.0757C3.58852 30.1333 3.6678 30.227 3.75429 30.3135C5.18852 31.7478 6.61555 33.182 8.04978 34.6162C8.14348 34.7099 8.20834 34.8252 8.266 34.9117C9.17411 34.0036 10.0318 33.146 10.8606 32.3171C8.50384 29.9748 6.11105 27.5964 3.74708 25.2469C2.9687 26.0252 2.11105 26.8901 1.20294 27.7982C1.41915 28.0072 1.70023 28.2595 1.9669 28.5333C2.2696 28.836 2.29123 29.1387 2.04618 29.3838C1.80114 29.6288 1.49843 29.6144 1.20294 29.2973C0.813748 28.8937 0.453388 28.4685 0.0786133 28.0505C0.0786133 27.8342 0.0786133 27.618 0.0786133 27.4018ZM12.7417 16.0937C12.7417 15.9423 12.7417 15.827 12.7417 15.7117C12.7417 15.2432 12.7417 14.7748 12.7417 14.3063C12.7489 13.8883 12.9507 13.6505 13.2894 13.6577C13.6354 13.6577 13.8155 13.8739 13.8228 14.3135C13.8228 14.4072 13.8228 14.5081 13.8228 14.6018C13.8228 17.7081 13.8228 20.8144 13.8228 23.9135C13.8228 24.0649 13.83 24.2234 13.8588 24.3748C13.9381 24.764 14.248 24.9874 14.6372 24.9658C15.0768 24.9369 15.3219 24.627 15.3219 24.0865C15.3219 21.2324 15.3219 18.3784 15.3219 15.5243C15.3219 15.4018 15.3146 15.2793 15.3363 15.164C15.3939 14.8685 15.5813 14.6811 15.884 14.6883C16.1795 14.6955 16.3741 14.8685 16.4101 15.1784C16.4318 15.3225 16.4246 15.4667 16.4246 15.6108C16.4246 18.7964 16.4246 21.9892 16.4246 25.1748C16.4246 25.3405 16.4246 25.5135 16.4534 25.6793C16.511 26.0324 16.8354 26.2703 17.2029 26.2631C17.5561 26.2487 17.8516 26.0036 17.902 25.6577C17.9237 25.5063 17.9237 25.3478 17.9237 25.1892C17.9237 21.9748 17.9165 18.7676 17.9165 15.5532C17.9165 15.4234 17.9092 15.2865 17.9381 15.1568C18.0029 14.8613 18.2047 14.6883 18.5002 14.6955C18.7813 14.7027 18.9615 14.8829 19.0192 15.1568C19.0408 15.2865 19.0408 15.4162 19.0408 15.5532C19.0408 17.8883 19.0408 20.2306 19.0408 22.5658C19.0408 23.1279 19.0336 23.6901 19.0408 24.2595C19.048 24.6703 19.3435 24.9586 19.7471 24.9658C20.1579 24.973 20.4606 24.7135 20.5038 24.3099C20.5183 24.1658 20.5183 24.0216 20.5183 23.8775C20.5183 21.0955 20.5183 18.3135 20.5183 15.5315C20.5183 15.3802 20.4966 15.1856 20.5759 15.0775C20.6912 14.9189 20.8786 14.7315 21.0444 14.7171C21.2101 14.7099 21.4264 14.8757 21.5489 15.027C21.6354 15.1279 21.621 15.3225 21.621 15.4739C21.6282 16.8505 21.621 18.2342 21.621 19.6108C21.621 20.1658 21.6137 20.7135 21.6282 21.2685C21.6354 21.6865 21.9164 21.982 22.3056 22.0108C22.7164 22.0396 23.0408 21.7802 23.1056 21.3478C23.1273 21.218 23.1273 21.0883 23.1273 20.9514C23.1273 17.3189 23.1201 13.6865 23.1345 10.0541C23.1345 9.40541 22.9687 8.83604 22.5435 8.33154C22.111 7.82703 21.8876 7.22163 21.8444 6.55856C21.83 6.33514 21.8155 6.11172 21.8011 5.87388C20.4822 5.87388 19.2065 5.87388 17.9237 5.87388C17.7939 5.87388 17.657 5.87388 17.5345 5.84505C17.2606 5.77298 17.1092 5.58559 17.1237 5.2901C17.1381 5.01622 17.2894 4.85046 17.5561 4.7928C17.6858 4.77118 17.8155 4.76397 17.9525 4.76397C19.502 4.76397 21.0444 4.76397 22.5939 4.76397C22.7309 4.76397 22.8678 4.74955 22.9903 4.74235C22.9903 3.4955 22.9903 2.2919 22.9903 1.08829C22.9255 1.07388 22.8894 1.06667 22.8534 1.06667C19.6029 1.06667 16.3597 1.06667 13.1092 1.05946C12.8498 1.05946 12.821 1.17478 12.821 1.38379C12.8282 2.40001 12.8282 3.42343 12.821 4.43964C12.821 4.6919 12.9002 4.77118 13.1453 4.77118C13.7651 4.75676 14.3921 4.76397 15.0119 4.77118C15.4228 4.77838 15.675 4.9946 15.675 5.32613C15.675 5.65046 15.4155 5.86667 15.0047 5.87388C14.6948 5.88109 14.3921 5.87388 14.1183 5.87388C14.075 5.92433 14.0678 5.93154 14.0606 5.94595C14.0534 5.98919 14.039 6.03964 14.039 6.0901C14.0462 7.11352 13.6065 7.93514 12.8786 8.62703C12.5615 8.92253 12.266 9.23244 11.9633 9.54235C11.639 9.88109 11.4372 10.2991 11.4372 10.7676C11.4228 12.0144 11.4156 13.2613 11.4372 14.5081C11.4588 15.2288 12.0065 15.9063 12.7417 16.0937ZM10.9327 30.6451C10.9543 30.6306 11.0047 30.5946 11.0408 30.5514C11.6894 29.8523 12.4894 29.4919 13.4408 29.4054C13.7435 29.3766 14.1038 29.2469 14.3201 29.0451C14.9759 28.4252 15.5813 27.7478 16.1651 27.1351C15.8912 26.7604 15.5957 26.3568 15.293 25.9315C13.8876 26.3856 12.7489 25.5496 12.7489 24.0072C12.7489 21.9964 12.7489 19.9784 12.7489 17.9676C12.7489 17.8451 12.7489 17.7153 12.7489 17.5207C12.6047 17.6577 12.5183 17.7297 12.439 17.809C12.0065 18.2414 11.5813 18.6811 11.1417 19.1063C10.7885 19.4451 10.2552 19.3081 10.2047 18.8541C10.1831 18.6739 10.2984 18.436 10.4282 18.2919C10.8318 17.8523 11.2714 17.4487 11.7038 17.0162C11.0119 16.5982 10.1759 16.6991 9.58492 17.2685C8.98672 17.8451 8.45339 18.4865 7.81915 19.0054C6.78132 19.8559 6.34888 20.8937 6.50023 22.2198C6.62276 23.3369 6.2696 24.3243 5.45519 25.1243C5.44077 25.1387 5.44798 25.1676 5.44798 25.1532C7.27141 27.0054 9.09483 28.8216 10.9327 30.6451ZM33.275 25.1892C30.875 27.5748 28.4822 29.9532 26.1399 32.2739C26.9831 33.1243 27.8336 33.9892 28.6264 34.7964C30.9975 32.4324 33.3903 30.0541 35.7615 27.6901C34.9327 26.8541 34.0822 26.0036 33.275 25.1892Z" fill="#007AFF"/>
<path d="M8.49675 33.0234C8.17243 33.0234 7.92739 32.7856 7.92739 32.4612C7.92018 32.1297 8.19405 31.8631 8.51838 31.8703C8.82829 31.8775 9.08054 32.1441 9.07333 32.4612C9.06612 32.7856 8.82108 33.0234 8.49675 33.0234Z" fill="#007AFF"/>
<path d="M24.0854 31.8199C24.0926 32.1082 23.8404 32.3604 23.5449 32.3676C23.2422 32.3748 22.9971 32.137 22.9899 31.8415C22.9827 31.5388 23.2205 31.3009 23.5304 31.2937C23.8331 31.2865 24.0854 31.5244 24.0854 31.8199Z" fill="#007AFF"/>
<path d="M26.5076 6.91895C26.7959 6.91895 27.0482 7.1712 27.0554 7.46669C27.0554 7.7694 26.8175 8.01444 26.5148 8.01444C26.2121 8.01444 25.9743 7.7766 25.9743 7.46669C25.9671 7.1712 26.2121 6.91895 26.5076 6.91895Z" fill="#007AFF"/>
<path d="M6.30568 9.89554C6.60838 9.89554 6.84622 10.1406 6.83901 10.4433C6.8318 10.7388 6.58676 10.991 6.29847 10.991C6.01018 10.991 5.76514 10.7388 5.76514 10.4361C5.76514 10.1334 6.00297 9.88833 6.30568 9.89554Z" fill="#007AFF"/>
<path d="M31.2788 12.7136C31.2716 13.009 31.0193 13.2469 30.7166 13.2325C30.4139 13.2253 30.1761 12.973 30.1833 12.6775C30.1905 12.3748 30.4427 12.1442 30.7454 12.1586C31.0409 12.1658 31.286 12.4181 31.2788 12.7136Z" fill="#007AFF"/>
<path d="M4.34564 14.8181C4.03573 14.8253 3.79789 14.5946 3.79069 14.2919C3.78348 13.9892 4.02132 13.7442 4.32402 13.737C4.62672 13.7298 4.87897 13.9676 4.88618 14.2631C4.88618 14.5586 4.64834 14.8108 4.34564 14.8181Z" fill="#007AFF"/>
<path d="M28.7197 9.01627C28.7052 9.31897 28.453 9.54239 28.1503 9.52077C27.8548 9.49915 27.617 9.22528 27.6386 8.94419C27.6602 8.65591 27.9341 8.41086 28.2151 8.43248C28.5106 8.4541 28.7341 8.71356 28.7197 9.01627Z" fill="#007AFF"/>
<path d="M5.15288 11.7334C5.44837 11.719 5.70062 11.9712 5.70783 12.2739C5.70783 12.5766 5.49882 12.8 5.20333 12.8217C4.90062 12.8433 4.63396 12.6054 4.62675 12.31C4.60513 12.0145 4.86459 11.7406 5.15288 11.7334Z" fill="#007AFF"/>
<path d="M3.60331 17.9891C3.8916 17.9891 4.15827 18.2414 4.15827 18.5297C4.16547 18.8252 3.91322 19.0702 3.61773 19.0774C3.30782 19.0846 3.06998 18.854 3.06998 18.5441C3.06277 18.2414 3.30782 17.9891 3.60331 17.9891Z" fill="#007AFF"/>
<path d="M32.0787 18.7172C32.3669 18.7172 32.612 18.9766 32.612 19.2721C32.612 19.5748 32.3669 19.8199 32.0714 19.8199C31.7832 19.8199 31.5237 19.5532 31.5309 19.2649C31.5309 18.9838 31.7976 18.7172 32.0787 18.7172Z" fill="#007AFF"/>
<path d="M17.2322 33.528C16.9295 33.5208 16.6917 33.2685 16.6989 32.973C16.7133 32.6847 16.9511 32.4541 17.2322 32.4469C17.5277 32.4469 17.7728 32.6919 17.7728 32.9946C17.78 33.3118 17.5421 33.5352 17.2322 33.528Z" fill="#007AFF"/>
<path d="M11.7035 6.19096C11.7035 6.47925 11.4441 6.74591 11.1558 6.74591C10.8675 6.74591 10.6008 6.47204 10.6081 6.19096C10.6153 5.90988 10.8531 5.67204 11.1414 5.66483C11.4441 5.65763 11.7035 5.89546 11.7035 6.19096Z" fill="#007AFF"/>
<path d="M25.1669 6.23429C25.1741 6.52258 24.9146 6.77483 24.6119 6.77483C24.3164 6.77483 24.0858 6.55141 24.0714 6.26312C24.057 5.97483 24.3092 5.70096 24.6047 5.69375C24.8858 5.68654 25.1597 5.946 25.1669 6.23429Z" fill="#007AFF"/>
<path d="M7.68961 8.24503C7.99232 8.23782 8.23736 8.48287 8.24457 8.77836C8.24457 9.06665 7.99232 9.33332 7.70403 9.33332C7.42295 9.34052 7.14907 9.07386 7.14907 8.79278C7.14187 8.51169 7.40132 8.24503 7.68961 8.24503Z" fill="#007AFF"/>
<path d="M22.0462 32.5189C22.0534 32.8144 21.8083 33.0738 21.5128 33.0811C21.2246 33.0883 20.9507 32.8288 20.9507 32.5405C20.9507 32.2594 21.1885 32.0144 21.4768 32.0072C21.7939 31.9856 22.039 32.209 22.0462 32.5189Z" fill="#007AFF"/>
<path d="M15.1059 33.2901C14.8176 33.2901 14.5581 33.0234 14.5581 32.7423C14.5581 32.4468 14.8104 32.209 15.1131 32.209C15.423 32.209 15.6608 32.4468 15.6608 32.7495C15.6536 33.0378 15.3941 33.2973 15.1059 33.2901Z" fill="#007AFF"/>
<path d="M9.38296 6.82522C9.69287 6.84684 9.89468 7.1063 9.86585 7.42342C9.83702 7.7045 9.58477 7.92071 9.29648 7.9063C8.99377 7.88468 8.77035 7.62522 8.79197 7.32252C8.80639 7.01981 9.07305 6.8036 9.38296 6.82522Z" fill="#007AFF"/>
<path d="M29.5995 10.1982C29.9095 10.1982 30.1473 10.4361 30.1473 10.7388C30.1473 11.0415 29.895 11.2865 29.5995 11.2793C29.3113 11.2721 29.0806 11.0343 29.0734 10.746C29.059 10.4433 29.2824 10.2054 29.5995 10.1982Z" fill="#007AFF"/>
<path d="M32.0714 14.7892C32.0786 15.0775 31.8263 15.3369 31.538 15.3442C31.2353 15.3514 30.9903 15.1207 30.9831 14.8108C30.9759 14.5153 31.2209 14.2559 31.5092 14.2487C31.7903 14.2487 32.0641 14.5081 32.0714 14.7892Z" fill="#007AFF"/>
<path d="M4.34523 16.3676C4.35243 16.6847 4.1218 16.9153 3.80468 16.9153C3.5164 16.9153 3.27135 16.6847 3.25694 16.4036C3.24252 16.1153 3.49477 15.8415 3.78306 15.8271C4.07856 15.8198 4.33802 16.0721 4.34523 16.3676Z" fill="#007AFF"/>
<path d="M32.5179 17.0235C32.5179 17.3334 32.2728 17.564 31.9629 17.5568C31.6674 17.5496 31.4512 17.3334 31.444 17.0307C31.4368 16.7135 31.6674 16.4757 31.9773 16.4757C32.28 16.4757 32.5179 16.7135 32.5179 17.0235Z" fill="#007AFF"/>
<path d="M4.27335 20.6847C4.28055 21.0018 4.04992 21.2324 3.74001 21.2396C3.43731 21.2396 3.18506 20.9874 3.18506 20.6991C3.18506 20.4252 3.43731 20.173 3.71118 20.1586C4.00668 20.1369 4.26614 20.382 4.27335 20.6847Z" fill="#007AFF"/>
<path d="M4.17237 23.3657C3.87688 23.3513 3.63904 23.0847 3.65345 22.7892C3.66787 22.4792 3.91291 22.2558 4.23003 22.2774C4.51111 22.2991 4.74895 22.5513 4.74174 22.8252C4.73454 23.1135 4.46066 23.3729 4.17237 23.3657Z" fill="#007AFF"/>
<path d="M12.4889 32.1874C12.4817 31.8991 12.698 31.654 12.9934 31.6396C13.3034 31.618 13.5628 31.8414 13.5844 32.1441C13.6061 32.4324 13.3538 32.7063 13.0583 32.7207C12.77 32.7351 12.4962 32.4829 12.4889 32.1874Z" fill="#007AFF"/>
<path d="M19.9269 32.9369C19.9197 33.2469 19.6746 33.4703 19.3647 33.4559C19.0692 33.4487 18.853 33.218 18.853 32.9225C18.853 32.6198 19.0981 32.3676 19.3936 32.3748C19.6963 32.382 19.9341 32.6342 19.9269 32.9369Z" fill="#007AFF"/>
<path d="M14.6083 2.36393C14.9254 2.37114 15.1777 2.62339 15.1704 2.94051C15.1704 3.24321 14.8966 3.51709 14.5939 3.51709C14.2695 3.51709 14.0101 3.25042 14.0245 2.91168C14.0389 2.58736 14.284 2.35673 14.6083 2.36393Z" fill="#007AFF"/>
<path d="M33.9817 27.5388C33.9745 27.8487 33.715 28.1153 33.4051 28.1153C33.0952 28.1153 32.8069 27.8126 32.8213 27.5027C32.8357 27.1928 33.1024 26.9478 33.4195 26.955C33.7438 26.9622 33.9889 27.2144 33.9817 27.5388Z" fill="#007AFF"/>
</g>
<defs>
<clipPath id="clip0_1358_823">
<rect width="36.8432" height="36" fill="white" transform="translate(0.0786133 0.5)"/>
</clipPath>
</defs>
</svg>
