<svg width="36" height="36" viewBox="0 0 36 36" fill="none" xmlns="http://www.w3.org/2000/svg">
<g clip-path="url(#clip0_1391_869)">
<path d="M13.5703 35C13.3149 34.9383 13.0596 34.8767 12.8042 34.8062C10.1711 34.1193 8.26016 32.0058 7.87268 29.3287C7.85507 29.2407 7.82865 29.1438 7.80223 29.0117C7.35311 29.0117 6.90399 29.0117 6.44606 29.0117C5.96172 29.0117 5.48618 29.0205 5.00184 29.0029C4.79049 28.9941 4.70243 29.0645 4.63197 29.2671C4.28853 30.1829 3.41671 30.7729 2.43041 30.7906C1.46172 30.8082 0.572288 30.227 0.184812 29.3287C-0.334757 28.1135 0.264069 26.6692 1.48814 26.1761C2.71221 25.6741 4.14763 26.2729 4.62317 27.5146C4.71123 27.7348 4.8081 27.7964 5.02826 27.7964C5.85605 27.7876 6.69264 27.7876 7.52043 27.7964C7.767 27.7964 7.83745 27.6996 7.87268 27.4794C8.62121 22.6624 13.8521 20.2759 17.9823 22.8649C18.8805 23.4285 19.5762 24.1947 20.1398 25.1369C20.8443 24.6086 21.5224 24.0802 22.2269 23.587C22.4823 23.4109 22.5175 23.2524 22.4382 22.953C21.5224 19.3688 23.4069 15.996 26.9294 14.8688C26.9823 14.8512 27.0351 14.8248 27.132 14.7896C26.2425 13.6007 25.3619 12.4295 24.4725 11.2407C22.4999 12.3679 20.448 12.5704 18.3697 11.6546C16.2915 10.7387 15.041 9.10954 14.5038 6.83753C13.5615 7.6389 12.6545 8.41385 11.7386 9.19761C11.9852 9.60269 12.2406 9.97256 12.4519 10.3688C12.8746 11.135 13.086 11.9716 13.1829 12.8434C13.2005 12.9931 13.2973 13.178 13.4206 13.2749C14.3541 14.0234 15.3052 14.7456 16.2386 15.4941C16.4412 15.6526 16.5821 15.679 16.811 15.5469C17.674 15.0538 18.5459 15.0978 19.356 15.6526C20.1838 16.225 20.5273 17.0616 20.3512 18.0391C20.175 18.999 19.585 19.6594 18.6251 19.9236C17.7357 20.1702 16.9431 19.9501 16.3003 19.3072C15.6574 18.6643 15.4461 17.863 15.6926 16.9823C15.7631 16.727 15.7103 16.6037 15.5165 16.4628C14.7151 15.8551 13.9314 15.2299 13.1212 14.6047C12.2318 18.5499 8.86779 20.2142 6.19068 20.0205C2.85311 19.7651 0.528256 17.2553 0.0879433 14.4638C-0.202663 12.588 0.220037 10.8796 1.38246 9.37373C2.54489 7.87667 4.09479 7.04888 5.98814 6.81111C5.98814 5.816 5.99695 4.85612 5.97933 3.89623C5.97933 3.80817 5.85605 3.68489 5.75918 3.64966C4.82571 3.24457 4.27972 2.56649 4.21808 1.53616C4.16524 0.532243 4.60556 -0.225096 5.48618 -0.70944C6.69264 -1.37872 8.20732 -0.85034 8.79734 0.426568C9.35213 1.64183 8.75331 3.1389 7.49401 3.62324C7.27385 3.7113 7.21221 3.79937 7.21221 4.01952C7.22102 4.84731 7.22102 5.68391 7.21221 6.5117C7.21221 6.69663 7.22982 6.82872 7.45879 6.85514C8.71808 6.99604 9.81006 7.51561 10.7964 8.29056C10.814 8.30817 10.8404 8.30817 10.8756 8.32579C12.0116 7.3571 13.1476 6.3796 14.2836 5.40211C14.3629 5.34046 14.4069 5.20837 14.4157 5.10269C14.6271 2.10856 16.9079 -0.410027 19.8668 -0.92079C23.4069 -1.53723 26.8238 0.82285 27.5018 4.32774C27.5283 4.45103 27.6339 4.60954 27.7396 4.66238C29.1046 5.33166 30.4696 5.99213 31.8433 6.64379C31.9402 6.68782 32.1075 6.69663 32.1868 6.64379C33.6574 5.60465 35.6036 6.45886 35.947 8.04399C35.9559 8.0704 35.9911 8.09682 36.0087 8.12324C36.0087 8.43146 36.0087 8.73087 36.0087 9.03909C35.9647 9.13596 35.9206 9.22402 35.8854 9.32089C35.5243 10.3512 34.7758 10.9148 33.7103 10.9765C32.7504 11.0293 31.993 10.589 31.5087 9.73479C31.1476 9.10954 31.1564 8.44027 31.3414 7.74457C30.0997 7.14575 28.8668 6.55573 27.6075 5.93929C27.4754 7.7798 26.7269 9.25925 25.45 10.4833C26.3218 11.6457 27.1936 12.7553 28.0038 13.9178C28.3472 14.4109 28.7083 14.7103 29.3335 14.6047C29.4656 14.5782 29.6065 14.6399 29.7474 14.6575C33.3316 15.1947 35.815 18.4442 35.3658 22.0019C34.9872 25.0489 32.539 27.453 29.4568 27.7436C26.8502 27.9902 24.8247 26.9334 23.3101 24.8375C23.222 24.723 23.1515 24.591 23.0635 24.4501C22.2885 25.0313 21.5488 25.5773 20.8179 26.1497C20.7474 26.2025 20.7298 26.361 20.7474 26.4667C20.8355 27.0919 20.95 27.7084 21.0204 28.3336C21.0468 28.5362 21.0997 28.6418 21.2846 28.7299C22.5968 29.3551 23.9001 29.9804 25.2034 30.6232C25.3883 30.7201 25.5204 30.7113 25.7054 30.588C26.6917 29.9364 28.0126 30.1037 28.7787 30.9491C29.6065 31.8649 29.633 33.1594 28.858 34.1281C28.4881 34.5861 27.9774 34.7974 27.449 34.9911C27.1672 34.9911 26.8854 34.9911 26.6036 34.9911C26.4715 34.9471 26.3394 34.8943 26.2161 34.8503C25.5204 34.5861 25.0449 34.1105 24.7807 33.4148C24.5782 32.8688 24.6046 32.3229 24.7719 31.7593C23.4686 31.134 22.1829 30.5088 20.8795 29.8835C20.8443 29.9892 20.8179 30.0596 20.8003 30.1213C20.1398 32.3845 18.678 33.8904 16.4676 34.6741C16.0625 34.815 15.6398 34.8855 15.2259 34.9911C14.6535 35 14.1163 35 13.5703 35ZM17.9911 32.3669C19.5322 31.1076 20.2103 28.7827 19.5146 26.7045C18.7748 24.4677 16.5821 22.8121 13.8433 23.0322C11.6153 23.2172 9.61632 25.0137 9.11436 27.3385C8.66524 29.408 9.70438 31.5831 10.7699 32.2964C10.7787 32.1731 10.7876 32.0587 10.8052 31.9442C10.9285 30.8962 11.5713 30.2446 12.6193 30.2182C13.8609 30.1829 15.1026 30.2093 16.3443 30.227C16.8198 30.2358 17.2161 30.4735 17.5331 30.817C17.9206 31.2397 18.0439 31.7504 17.9911 32.3669ZM32.4157 25.1634C33.9744 23.9305 34.6085 21.3943 33.8952 19.4217C33.085 17.2025 30.9803 15.7407 28.6819 15.8111C26.3482 15.8816 24.2699 17.4755 23.6359 19.6506C22.9754 21.9227 23.9265 24.1418 25.1682 25.1281C25.177 25.0401 25.1858 24.9608 25.1858 24.8816C25.2562 23.7456 25.9872 23.0146 27.1232 22.997C28.2504 22.9794 29.3688 22.9882 30.496 22.997C31.0067 22.997 31.4647 23.1643 31.8345 23.5166C32.3013 23.9481 32.4422 24.5029 32.4157 25.1634ZM10.224 17.3522C11.7562 16.0489 12.4167 13.724 11.6946 11.6546C10.9196 9.42657 8.78853 7.93831 6.51652 8.00876C4.11241 8.08802 2.04293 9.69076 1.41769 11.9187C0.792444 14.1643 1.74352 16.3659 2.9764 17.3258C2.9852 17.2201 2.99401 17.132 3.00282 17.044C3.09088 15.9608 3.6809 15.2739 4.76407 15.2211C5.98814 15.1506 7.22102 15.1594 8.45389 15.2211C9.36094 15.2651 9.97738 15.8199 10.1623 16.6301C10.2063 16.8414 10.1975 17.0792 10.224 17.3522ZM17.3658 9.54986C17.3746 9.42657 17.3834 9.34731 17.3834 9.26806C17.4627 8.19369 18.0527 7.48919 19.1271 7.42755C20.36 7.3571 21.6105 7.34829 22.8433 7.42755C23.9705 7.498 24.5694 8.22011 24.6046 9.35612C24.6046 9.41776 24.631 9.47941 24.6398 9.54986C26.7709 7.65651 27.0615 4.11639 24.8424 1.82676C22.72 -0.365996 19.1447 -0.313159 17.0488 1.95005C14.9001 4.2749 15.2964 7.71815 17.3658 9.54986ZM14.4157 31.4158C13.8521 31.4158 13.2885 31.407 12.7337 31.4158C12.2582 31.4246 12.0292 31.6624 12.0204 32.1291C12.0204 32.4021 12.038 32.6663 12.0116 32.9393C11.994 33.1594 12.0821 33.2651 12.2846 33.3532C13.5703 33.8728 14.8649 33.9168 16.177 33.4765C16.8022 33.2651 16.8022 33.2563 16.8022 32.6223C16.8022 32.4814 16.8022 32.3405 16.8022 32.1996C16.7934 31.6624 16.5557 31.4246 16.0273 31.4246C15.4989 31.407 14.9529 31.4158 14.4157 31.4158ZM21.0028 8.61639C20.4656 8.61639 19.9285 8.60759 19.3913 8.61639C18.8365 8.6252 18.6251 8.82774 18.6251 9.37373C18.6251 9.62911 18.6339 9.8933 18.6163 10.1487C18.6075 10.3512 18.678 10.4569 18.8717 10.5362C20.1134 11.0557 21.3815 11.1086 22.6672 10.7123C23.4157 10.4833 23.4157 10.4745 23.4157 9.68195C23.4157 9.57628 23.4157 9.4706 23.4157 9.36492C23.3981 8.84536 23.178 8.61639 22.6672 8.60759C22.1036 8.61639 21.5488 8.61639 21.0028 8.61639ZM6.61338 16.4187C6.03217 16.4275 5.44215 16.4099 4.86094 16.4275C4.43824 16.4364 4.22689 16.6741 4.21808 17.0968C4.20927 17.3874 4.22689 17.6868 4.20927 17.9774C4.19166 18.18 4.27972 18.2681 4.45585 18.3385C5.76798 18.8845 7.10653 18.9197 8.44509 18.4618C9.00869 18.2681 8.99988 18.2593 8.99988 17.6516C8.99988 17.5195 8.99988 17.3962 8.99988 17.2641C8.99988 16.6389 8.78853 16.4275 8.15448 16.4275C7.64372 16.4187 7.13295 16.4187 6.61338 16.4187ZM28.8052 24.2211C28.224 24.2299 27.6339 24.2123 27.0527 24.2299C26.6388 24.2475 26.4451 24.4677 26.4275 24.8728C26.4187 25.1634 26.4363 25.454 26.4187 25.7534C26.4099 25.9559 26.4803 26.0704 26.6741 26.1409C27.9157 26.6516 29.175 26.7221 30.4607 26.317C31.2005 26.0792 31.2005 26.0792 31.2005 25.3219C31.2005 25.2074 31.2005 25.0841 31.2005 24.9696C31.1829 24.4412 30.9803 24.2299 30.4519 24.2123C29.8971 24.2123 29.3512 24.2211 28.8052 24.2211ZM27.0175 31.4158C26.3746 31.407 25.8198 31.9442 25.811 32.587C25.7934 33.2387 26.3658 33.8111 27.0175 33.8023C27.6604 33.7935 28.2063 33.2475 28.2063 32.6047C28.1975 31.9618 27.6604 31.4158 27.0175 31.4158ZM33.6222 7.42755C32.9617 7.41874 32.4245 7.9295 32.4157 8.58117C32.4069 9.25044 32.9353 9.78763 33.6046 9.78763C34.2651 9.78763 34.7934 9.26806 34.8022 8.61639C34.811 7.96473 34.2739 7.42755 33.6222 7.42755ZM6.61338 2.59291C7.25624 2.59291 7.80223 2.04692 7.80223 1.40406C7.80223 0.770012 7.25624 0.215217 6.61338 0.206411C5.96172 0.197605 5.40693 0.761206 5.41573 1.42168C5.42454 2.06453 5.96172 2.59291 6.61338 2.59291ZM3.59284 28.4129C3.60164 27.7612 3.07327 27.2152 2.43041 27.2064C1.78755 27.1888 1.20634 27.7612 1.21514 28.4129C1.21514 29.0557 1.76994 29.5929 2.4128 29.5929C3.05565 29.5929 3.58403 29.0645 3.59284 28.4129ZM18.0175 16.4275C17.357 16.4187 16.8198 16.9295 16.811 17.5812C16.7934 18.2416 17.3394 18.7876 18.0087 18.7876C18.6692 18.7876 19.1975 18.2681 19.1975 17.6164C19.2063 16.9559 18.678 16.4275 18.0175 16.4275Z" fill="#007AFF"/>
<path d="M12.0029 26.5988C12.0029 25.2778 13.1301 24.1683 14.4247 24.1947C15.7456 24.2211 16.8111 25.3043 16.8023 26.6076C16.8023 27.9109 15.728 28.9941 14.4158 29.0117C13.1125 29.0293 12.0029 27.9197 12.0029 26.5988ZM14.3982 27.7876C15.0587 27.7876 15.5871 27.2769 15.6047 26.6252C15.6223 25.9823 15.0851 25.4364 14.4335 25.4276C13.7554 25.4187 13.2182 25.9383 13.2182 26.6076C13.2182 27.2593 13.7378 27.7788 14.3982 27.7876Z" fill="#007AFF"/>
<path d="M28.8143 21.7994C27.4934 21.8083 26.3926 20.7163 26.3926 19.4041C26.3926 18.1008 27.4757 17.0176 28.7879 17.0088C30.1088 17 31.2184 18.1008 31.2096 19.413C31.2096 20.7163 30.1352 21.7906 28.8143 21.7994ZM27.6255 19.413C27.6343 20.0734 28.1538 20.593 28.8055 20.593C29.4572 20.593 29.9855 20.0646 29.9855 19.413C29.9855 18.7437 29.4395 18.1977 28.7791 18.2065C28.1274 18.2241 27.6166 18.7525 27.6255 19.413Z" fill="#007AFF"/>
<path d="M6.5957 13.997C5.26595 13.9882 4.19159 12.9051 4.2092 11.5753C4.22681 10.2544 5.29237 9.19763 6.6045 9.19763C7.92544 9.19763 9.00861 10.2896 8.9998 11.6194C8.991 12.9403 7.90783 14.0059 6.5957 13.997ZM6.6045 12.7906C7.24736 12.7906 7.79335 12.2534 7.80215 11.6105C7.81096 10.9765 7.26497 10.4217 6.62211 10.4041C5.97045 10.3865 5.40685 10.9501 5.41566 11.6105C5.42446 12.2622 5.95284 12.7906 6.6045 12.7906Z" fill="#007AFF"/>
<path d="M21.1167 6.19466C19.831 6.30034 18.7302 5.28762 18.607 3.89623C18.5013 2.66335 19.5492 1.49212 20.8526 1.40406C22.1559 1.31599 23.2919 2.31991 23.4064 3.67607C23.512 4.95298 22.4817 6.08899 21.1167 6.19466ZM19.8222 3.79936C19.8222 4.45983 20.333 4.9794 20.9935 4.98821C21.6627 4.98821 22.1999 4.45983 22.1911 3.79056C22.1823 3.13889 21.6451 2.60171 21.0023 2.61052C20.3506 2.61052 19.8222 3.1477 19.8222 3.79936Z" fill="#007AFF"/>
</g>
<defs>
<clipPath id="clip0_1391_869">
<rect width="36" height="36" fill="white"/>
</clipPath>
</defs>
</svg>
