<svg width="32" height="37" viewBox="0 0 32 37" fill="none" xmlns="http://www.w3.org/2000/svg">
<path d="M15.0933 33.5C14.608 33.4217 14.1069 33.3747 13.6294 33.2651C8.57981 32.1143 5.29956 29.0454 3.92953 24.0585C3.09185 21.0288 3.50678 18.0695 4.92378 15.2512C4.98641 15.1181 5.01773 14.9537 5.01773 14.8049C5.02555 12.1118 5.01773 9.41092 5.02555 6.71783C5.02555 6.58474 5.03338 6.44382 5.07253 6.31856C5.15081 6.0837 5.3387 5.98193 5.57357 6.00541C5.81626 6.0289 5.97283 6.16199 6.01198 6.40468C6.03546 6.52994 6.03546 6.6552 6.03546 6.78046C6.03546 8.86291 6.03546 10.9375 6.03546 13.02C6.03546 13.1374 6.03546 13.2548 6.03546 13.4506C8.65027 10.2329 11.9462 8.50279 16.0328 8.50279C20.1194 8.50279 23.4231 10.2251 26.0301 13.4506C26.0301 13.2862 26.0301 13.1766 26.0301 13.0748C26.0301 10.9767 26.0301 8.87857 26.0301 6.77263C26.0301 6.66303 26.0301 6.55343 26.0379 6.45165C26.0693 6.17765 26.2571 5.99758 26.5155 5.98976C26.7817 5.98193 26.993 6.16199 27.0322 6.44382C27.0478 6.53777 27.04 6.63954 27.04 6.73349C27.04 9.41092 27.04 12.0884 27.0478 14.758C27.0478 14.9459 27.0948 15.1494 27.1809 15.3138C30.9231 22.6259 26.5938 31.6211 18.5536 33.2338C18.0291 33.3356 17.4968 33.3982 16.9722 33.4843C16.3459 33.5 15.7196 33.5 15.0933 33.5ZM16.0093 32.4979C22.2801 32.5292 27.4784 27.3857 27.5254 21.1149C27.5645 14.6953 22.4445 9.52052 16.0406 9.5127C9.73846 9.49704 4.57932 14.6092 4.54017 20.8957C4.50886 27.2918 9.61321 32.4588 16.0093 32.4979Z" fill="#007AFF"/>
<path d="M13.0426 5.73141C13.0426 6.28725 13.0426 6.84309 13.0426 7.39893C13.0426 7.75905 12.8391 7.99392 12.5494 8.00174C12.2519 8.00957 12.0405 7.78254 12.0405 7.41459C12.0327 6.3029 12.0327 5.19122 12.0405 4.07954C12.0405 3.70376 12.2284 3.49238 12.5416 3.50021C12.8469 3.50021 13.0426 3.72724 13.0426 4.0952C13.0426 4.64321 13.0426 5.18339 13.0426 5.73141Z" fill="#007AFF"/>
<path d="M20.0338 5.75493C20.0338 6.30294 20.0338 6.85095 20.0338 7.39114C20.0338 7.77474 19.8303 8.00961 19.5171 8.00178C19.2196 7.99395 19.0239 7.75909 19.0239 7.39114C19.0239 6.28728 19.0239 5.18343 19.0239 4.0874C19.0239 3.71945 19.2196 3.50024 19.5328 3.50024C19.8459 3.50024 20.026 3.70379 20.0338 4.0874C20.0417 4.64324 20.0338 5.19908 20.0338 5.75493Z" fill="#007AFF"/>
<path d="M15.5245 5.48087C15.5245 5.01897 15.5166 4.56491 15.5245 4.10301C15.5323 3.7194 15.728 3.49237 16.049 3.5002C16.3543 3.50802 16.5422 3.72723 16.55 4.09518C16.5579 5.03463 16.5579 5.96625 16.55 6.9057C16.55 7.27366 16.3543 7.49286 16.0412 7.49286C15.728 7.49286 15.5323 7.28149 15.5245 6.91353C15.5166 6.43598 15.5245 5.95843 15.5245 5.48087Z" fill="#007AFF"/>
<path d="M9.52698 7.99392C9.52698 8.32273 9.53481 8.65937 9.52698 8.98818C9.51915 9.2935 9.3156 9.48922 9.0416 9.49705C8.75193 9.50487 8.54056 9.2935 8.53273 8.97252C8.5249 8.32273 8.5249 7.66512 8.53273 7.01533C8.53273 6.70218 8.75193 6.48297 9.03377 6.4908C9.3156 6.4908 9.51915 6.71001 9.52698 7.03099C9.53481 7.35197 9.52698 7.67295 9.52698 7.99392Z" fill="#007AFF"/>
<path d="M23.5328 8.00176C23.5328 8.32274 23.5407 8.64372 23.5328 8.9647C23.525 9.28568 23.3214 9.49705 23.0396 9.49705C22.7499 9.49705 22.5464 9.28568 22.5464 8.9647C22.5386 8.31491 22.5386 7.6573 22.5464 7.00751C22.5464 6.69436 22.7734 6.48298 23.0553 6.49081C23.3293 6.49864 23.5328 6.71002 23.5407 7.00751C23.5407 7.34415 23.5328 7.67295 23.5328 8.00176Z" fill="#007AFF"/>
<path d="M8.53229 4.4945C8.53229 4.32226 8.52446 4.1422 8.53229 3.96997C8.54795 3.68813 8.75932 3.50024 9.03333 3.50024C9.30733 3.50024 9.51871 3.68813 9.52654 3.96997C9.5422 4.32226 9.5422 4.67456 9.52654 5.02685C9.51871 5.30869 9.30733 5.49658 9.03333 5.49658C8.75932 5.49658 8.55577 5.30869 8.54012 5.02685C8.52446 4.84679 8.53229 4.67456 8.53229 4.4945Z" fill="#007AFF"/>
<path d="M22.5381 4.50232C22.5381 4.31443 22.5303 4.13437 22.5381 3.94648C22.5616 3.68031 22.7652 3.50807 23.0314 3.50024C23.2897 3.50024 23.5167 3.68031 23.5246 3.93865C23.5402 4.30661 23.5402 4.68239 23.5246 5.05034C23.5167 5.30869 23.2975 5.48875 23.0314 5.48875C22.7652 5.48875 22.5616 5.31652 22.5381 5.05034C22.5303 4.87028 22.5381 4.68239 22.5381 4.50232Z" fill="#007AFF"/>
<path d="M10.8104 26.2505C10.9044 25.6556 11.0296 24.9197 11.1471 24.1916C11.2097 23.808 11.2801 23.4244 11.3428 23.0408C11.3897 22.7746 11.288 22.571 11.1001 22.3831C10.4033 21.6864 9.70656 20.9896 9.02546 20.2772C8.2739 19.4865 8.39133 18.2574 9.29164 17.7642C9.61261 17.5919 10.0119 17.5293 10.3798 17.4667C11.1549 17.3336 11.9378 17.2162 12.7206 17.1144C13.0416 17.0752 13.2295 16.9265 13.3548 16.6368C13.7697 15.7444 14.2003 14.8597 14.6152 13.9672C14.897 13.3644 15.3433 13.0043 16.0165 12.9965C16.7055 12.9965 17.1595 13.3566 17.4492 13.9751C17.8641 14.8675 18.3025 15.7522 18.7096 16.6447C18.8427 16.9343 19.0384 17.0674 19.3516 17.1066C20.3145 17.2396 21.2853 17.3727 22.2404 17.5528C23.4852 17.7877 23.9706 19.2438 23.1094 20.1833C22.4439 20.9192 21.7237 21.6159 21.0191 22.3127C20.7686 22.5632 20.6825 22.8215 20.7529 23.1817C20.933 24.1368 21.0896 25.0997 21.2305 26.0627C21.4027 27.1587 20.6668 28.0433 19.6178 27.9729C19.3672 27.9572 19.1089 27.8476 18.8819 27.7302C18.0442 27.2918 17.2143 26.8299 16.3923 26.368C16.134 26.2192 15.9148 26.2271 15.6564 26.3758C14.7953 26.8612 13.9341 27.3387 13.0651 27.7928C11.9847 28.3643 10.7791 27.6049 10.8104 26.2505ZM16.0244 25.1858C16.2984 25.2798 16.5724 25.3424 16.8072 25.4598C17.6762 25.9217 18.5374 26.3993 19.3986 26.869C19.6099 26.9864 19.8135 27.0491 20.0249 26.8847C20.2284 26.7203 20.2832 26.5089 20.2441 26.2584C20.0875 25.3033 19.9466 24.3482 19.7665 23.4009C19.6256 22.6728 19.7978 22.0856 20.338 21.5689C21.0035 20.927 21.6454 20.2537 22.2952 19.5883C22.577 19.2986 22.6318 18.9541 22.3891 18.7349C22.2482 18.6018 22.0212 18.5314 21.8176 18.5001C20.9408 18.3513 20.064 18.2104 19.1872 18.1008C18.5061 18.0147 18.0677 17.6624 17.7937 17.0518C17.3944 16.1828 16.9716 15.3294 16.5724 14.4604C16.4628 14.2177 16.3297 13.9985 16.0322 14.0064C15.7425 14.0142 15.6173 14.2177 15.5155 14.4526C15.0927 15.3607 14.6543 16.2689 14.2238 17.177C13.9732 17.7015 13.5661 18.0069 12.9868 18.093C12.063 18.2261 11.1392 18.367 10.2076 18.5079C9.93359 18.547 9.66742 18.6097 9.57347 18.9307C9.47953 19.2438 9.62827 19.4552 9.83182 19.6587C10.4973 20.332 11.1549 21.0131 11.8282 21.6785C12.2822 22.1326 12.431 22.665 12.3292 23.2834C12.1648 24.2699 12.0004 25.2641 11.8282 26.2505C11.7812 26.5089 11.8438 26.7359 12.063 26.9003C12.2822 27.0569 12.4858 26.9786 12.6893 26.869C13.5348 26.4071 14.3803 25.9374 15.2337 25.4833C15.4685 25.3502 15.7504 25.2876 16.0244 25.1858Z" fill="#007AFF"/>
<path d="M26.5309 20.9192C26.5387 22.6494 26.163 24.1838 25.4584 25.6478C25.3566 25.8514 25.2235 26.0079 24.9808 26.0236C24.5659 26.0471 24.3702 25.6635 24.5267 25.2329C24.8086 24.4657 25.1452 23.7063 25.3174 22.9156C26.4526 17.8425 23.0001 12.6521 17.8958 11.6891C15.187 11.1803 12.7053 11.7204 10.4585 13.3097C10.2471 13.4584 10.0435 13.568 9.78519 13.4193C9.44856 13.2236 9.44856 12.8008 9.78519 12.5425C10.6072 11.924 11.5075 11.4386 12.4783 11.0941C17.7784 9.25439 23.3916 11.6813 25.6619 16.7935C26.2569 18.1557 26.5387 19.557 26.5309 20.9192Z" fill="#007AFF"/>
<path d="M15.8845 30.4938C18.0687 30.4703 19.9085 29.891 21.5525 28.7166C21.5917 28.6853 21.6308 28.6618 21.67 28.6305C21.9675 28.427 22.2728 28.4583 22.445 28.7088C22.6173 28.9672 22.5468 29.2412 22.2415 29.4604C20.8088 30.4938 19.2274 31.1592 17.4659 31.3863C14.4284 31.7855 11.7118 31.0183 9.34751 29.0846C7.16329 27.2918 5.91069 24.951 5.58971 22.1405C5.36267 20.1207 5.69931 18.1948 6.58396 16.3707C6.69356 16.1437 6.83448 15.9714 7.10849 15.9793C7.49992 15.9871 7.70347 16.3785 7.50775 16.7778C7.12414 17.5685 6.82665 18.3905 6.68573 19.2673C6.13772 22.5476 7.02237 25.3973 9.36317 27.7537C11.2029 29.5935 13.4654 30.4546 15.8845 30.4938Z" fill="#007AFF"/>
</svg>
