<svg width="36" height="37" viewBox="0 0 36 37" fill="none" xmlns="http://www.w3.org/2000/svg">
<g clip-path="url(#clip0_1358_880)">
<path d="M25.6646 36C25.4111 35.8216 25.2891 35.5869 25.3923 35.2772C25.505 34.958 25.7678 34.9486 26.0494 34.9486C26.7535 34.958 27.4481 34.9486 28.1522 34.9486C28.0302 33.1744 26.4343 31.5129 24.6508 31.2876C24.294 31.2407 23.9279 31.2219 23.5712 31.2219C19.7694 31.2125 15.9582 31.2125 12.1564 31.2219C10.0818 31.2219 8.42025 32.4986 7.91334 34.4417C7.87579 34.6013 7.85701 34.7609 7.81946 34.9486C7.97905 34.9486 8.11986 34.9486 8.26066 34.9486C13.142 34.9486 18.0234 34.9486 22.9047 34.9486C23.1863 34.9486 23.4492 34.9674 23.5618 35.2866C23.6745 35.6057 23.5243 35.8216 23.2708 36C17.8638 36 12.4474 36 7.04033 36C6.50525 35.6057 6.71177 35.0613 6.80564 34.5825C7.22807 32.2826 8.87083 30.6774 11.1895 30.2268C11.2083 30.2268 11.227 30.2081 11.2552 30.1893C11.227 29.964 11.1895 29.7387 11.1895 29.504C11.1895 28.5841 11.9123 27.8425 12.8322 27.8425C16.2867 27.8331 19.7412 27.8331 23.1957 27.8425C24.2753 27.8425 25.045 28.8563 24.801 29.9265C24.7822 30.0015 24.7634 30.086 24.7352 30.1893C24.9418 30.2362 25.1483 30.2738 25.3454 30.3301C27.6077 30.9403 29.2129 32.9585 29.2974 35.3053C29.3068 35.6057 29.1942 35.8216 28.9689 35.9906C27.8612 36 26.7629 36 25.6646 36ZM18.0046 28.8939C17.8638 28.8939 17.723 28.8939 17.5822 28.8939C16.0333 28.8939 14.4938 28.8939 12.9449 28.8939C12.5225 28.8939 12.2408 29.1567 12.2408 29.5134C12.2315 29.8795 12.5131 30.133 12.9261 30.1517C12.9918 30.1517 13.0669 30.1517 13.1326 30.1517C16.3806 30.1517 19.6192 30.1517 22.8672 30.1517C22.9798 30.1517 23.1019 30.1611 23.2145 30.1424C23.5431 30.086 23.7684 29.8232 23.759 29.5134C23.759 29.2036 23.5243 28.9502 23.1957 28.8939C23.0925 28.8751 22.9892 28.8845 22.8766 28.8845C21.2526 28.8939 19.6286 28.8939 18.0046 28.8939Z" fill="#007AFF"/>
<path d="M35.9906 10.5512C32.3859 15.8644 28.7718 21.1776 25.1671 26.5001C25.092 26.6128 25.0169 26.7348 24.9324 26.8475C24.7259 27.1197 24.4255 27.1666 24.172 26.9789C23.928 26.8005 23.881 26.5283 24.0688 26.2373C24.6602 25.3549 25.261 24.4725 25.8617 23.5901C28.875 19.1593 31.879 14.7192 34.8923 10.2884C34.9955 10.1382 35.1176 9.96924 35.2771 9.89414C35.6057 9.73456 35.831 9.93169 36.0093 10.1945C35.9906 10.3166 35.9906 10.4386 35.9906 10.5512Z" fill="#007AFF"/>
<path d="M35.9911 0.713426C35.409 1.84928 34.8364 2.98513 34.2544 4.1116C34.1981 4.21486 34.1512 4.32751 34.0854 4.41199C33.8977 4.63729 33.663 4.72177 33.4002 4.56219C33.1467 4.41199 33.0435 4.17731 33.1749 3.90508C33.7757 2.69413 34.3764 1.47379 35.0054 0.281614C35.2213 -0.131424 35.6531 -0.0844878 35.9911 0.356712C35.9911 0.478746 35.9911 0.591392 35.9911 0.713426Z" fill="#007AFF"/>
<path d="M23.3178 21.1776C22.9892 21.1025 22.3884 20.9616 21.7877 20.8021C21.1681 20.6331 20.6894 20.849 20.2951 21.3277C19.9572 21.7314 19.638 22.1538 19.2625 22.5199C18.8307 22.9517 18.2956 23.2334 17.6761 23.0456C17.3193 22.933 16.972 22.7171 16.6904 22.473C16.3712 22.1914 16.0896 21.844 15.8362 21.4967C15.3386 20.8115 14.7191 20.6049 13.9024 20.8678C13.4706 21.0086 13.02 21.1212 12.5694 21.1682C11.3772 21.2996 10.7013 20.7645 10.5418 19.563C10.4667 19.0279 10.4479 18.4928 10.4103 17.9577C10.3634 17.4414 10.1006 17.0847 9.6312 16.8782C9.22755 16.6998 8.80513 16.559 8.39209 16.3807C6.94646 15.7517 6.63668 14.7942 7.43459 13.4237C7.60356 13.1421 7.78192 12.8699 7.96967 12.5976C8.43903 11.9311 8.42964 11.274 7.96028 10.6169C7.78192 10.3729 7.61295 10.1194 7.44398 9.86595C7.29379 9.63127 7.14359 9.3872 7.03094 9.13375C6.67423 8.30767 6.89952 7.59424 7.69744 7.17182C8.1668 6.91836 8.68309 6.74939 9.18062 6.56165C10.1757 6.18616 10.4103 5.86699 10.4573 4.79685C10.4761 4.41197 10.4854 4.0271 10.5418 3.64222C10.7201 2.45004 11.5274 1.86804 12.7196 2.09333C13.1796 2.17781 13.6302 2.29985 14.0807 2.42188C14.7566 2.60963 15.3011 2.43127 15.7235 1.87742C15.9394 1.59581 16.1553 1.32358 16.3806 1.06073C16.4839 0.938701 16.6059 0.816667 16.7279 0.713407C17.5822 -0.0375705 18.3895 -0.0469577 19.2249 0.722795C19.5723 1.04196 19.8821 1.42684 20.1637 1.80233C20.6236 2.40311 21.1775 2.60963 21.9191 2.41249C22.4917 2.2623 23.0737 2.10272 23.6651 2.06517C24.5663 2.00884 25.1201 2.45943 25.336 3.33244C25.4205 3.661 25.4487 3.99894 25.4768 4.33688C25.4956 4.52462 25.4956 4.71236 25.4956 4.90011C25.4956 5.74496 25.8993 6.27064 26.6972 6.54287C27.1947 6.71184 27.6828 6.91836 28.1334 7.1812C28.9219 7.65995 29.1379 8.35461 28.7905 9.20884C28.6122 9.65004 28.3493 10.0631 28.0959 10.4573C27.4669 11.4242 27.4669 11.8185 28.1053 12.7948C28.3681 13.1984 28.6216 13.6021 28.7999 14.0433C29.1379 14.8881 28.9219 15.564 28.1522 16.0427C27.7016 16.3244 27.1947 16.5403 26.6878 16.7092C25.8711 16.9815 25.505 17.5165 25.4862 18.352C25.4674 18.8777 25.4393 19.4128 25.3266 19.9197C25.1483 20.8208 24.5193 21.2433 23.3178 21.1776ZM23.4961 20.1262C24.1063 20.145 24.341 19.9572 24.3973 19.4691C24.4442 19.0748 24.463 18.6712 24.4724 18.2769C24.5193 17.1035 25.0075 16.2399 26.1433 15.7987C26.5094 15.6579 26.8943 15.5264 27.251 15.3669C27.9738 15.0571 28.0865 14.7004 27.6828 14.0245C27.4951 13.7147 27.2886 13.4143 27.0914 13.1139C26.4437 12.1189 26.4343 11.1238 27.0821 10.1194C27.2041 9.93166 27.3355 9.7533 27.4482 9.56556C27.589 9.32149 27.7392 9.08681 27.8518 8.83335C28.002 8.5048 27.8987 8.23257 27.5984 8.04483C27.4294 7.94157 27.251 7.85708 27.0633 7.78199C26.6784 7.6224 26.2747 7.4816 25.8993 7.30324C25.1107 6.93714 24.6414 6.30819 24.5381 5.43518C24.4724 4.89072 24.463 4.33688 24.3973 3.79242C24.3316 3.21041 24.0218 2.98512 23.4492 3.09776C23.0831 3.17286 22.7264 3.27612 22.3603 3.37938C21.1306 3.75487 20.1261 3.45448 19.347 2.42188C19.1123 2.1121 18.8776 1.81171 18.6054 1.5301C18.1642 1.07951 17.8169 1.07012 17.3757 1.53948C17.0659 1.86804 16.7937 2.24352 16.5027 2.59085C15.808 3.41693 14.9444 3.70793 13.893 3.4357C13.4518 3.32306 13.0106 3.19163 12.5694 3.09776C11.978 2.97573 11.6682 3.20102 11.5931 3.79242C11.5556 4.12097 11.5368 4.44952 11.5274 4.76869C11.4993 6.23309 10.983 6.98407 9.61243 7.50976C9.22755 7.65057 8.84268 7.7726 8.46719 7.94157C7.88518 8.19502 7.81947 8.39216 8.14802 8.93661C8.35454 9.27455 8.57984 9.60311 8.80513 9.93166C9.59366 11.0487 9.58427 12.1658 8.79574 13.2829C8.608 13.5457 8.42025 13.818 8.26067 14.109C7.93212 14.7004 8.02599 15.0289 8.64555 15.3105C9.0492 15.4983 9.47162 15.6297 9.88466 15.7987C10.7858 16.1742 11.3585 16.8219 11.4617 17.8169C11.518 18.3426 11.5368 18.8683 11.5931 19.394C11.6588 19.976 11.9029 20.1731 12.4849 20.098C12.8416 20.0511 13.189 19.9384 13.5363 19.8446C14.9725 19.4503 15.7892 19.7131 16.7186 20.8772C16.9532 21.1682 17.1785 21.4779 17.4414 21.7314C17.8263 22.1069 18.1548 22.0881 18.5491 21.7314C18.6805 21.6188 18.7837 21.4779 18.9058 21.3371C19.1874 21.0086 19.4502 20.6613 19.7506 20.3515C20.3326 19.7507 21.0555 19.5536 21.8721 19.7225C22.4635 19.8633 23.0549 20.0229 23.4961 20.1262Z" fill="#007AFF"/>
<path d="M12.1193 26.594C11.9785 26.7536 11.8752 26.9788 11.7062 27.0446C11.556 27.1009 11.3307 26.9882 11.143 26.9131C11.0679 26.885 11.0303 26.7723 10.974 26.6972C7.39749 21.4216 3.81157 16.146 0.235036 10.8798C0.1881 10.8141 0.141164 10.7483 0.103615 10.6732C-0.055968 10.3916 0.0097426 10.1006 0.263198 9.93165C0.497878 9.78146 0.770108 9.82839 0.976627 10.0725C1.02356 10.1288 1.06111 10.1851 1.09866 10.2414C4.68458 15.5264 8.2705 20.8114 11.8564 26.0965C11.9409 26.2279 12.0066 26.3781 12.1193 26.594Z" fill="#007AFF"/>
<path d="M0.657475 0.00939941C0.732572 0.07511 0.939091 0.178369 1.02358 0.337952C1.63375 1.51136 2.22514 2.68476 2.80715 3.86755C2.94796 4.15855 2.83531 4.43078 2.55369 4.57159C2.28146 4.70301 2.00923 4.6373 1.86843 4.35568C1.25826 3.16351 0.657475 1.96194 0.0660796 0.75099C-0.112278 0.394276 0.150565 0.0187866 0.657475 0.00939941Z" fill="#007AFF"/>
<path d="M7.02152 0.00939941C7.19049 0.00939941 7.36885 0.150208 7.44394 0.394276C7.82882 1.5489 8.2137 2.71292 8.59857 3.87694C8.70183 4.1961 8.57041 4.43078 8.27002 4.54343C7.97902 4.64669 7.71617 4.53404 7.60353 4.21488C7.29375 3.3137 6.99336 2.40314 6.69297 1.50197C6.60848 1.23913 6.50522 0.976283 6.43012 0.704054C6.33625 0.337952 6.57093 0.0187866 7.02152 0.00939941Z" fill="#007AFF"/>
<path d="M29.6633 0.563202C29.6352 0.666461 29.6164 0.760333 29.5788 0.863593C29.2315 1.92435 28.8748 2.9851 28.5181 4.04586C28.4711 4.18667 28.396 4.33687 28.3022 4.43074C28.1144 4.61848 27.8797 4.64664 27.6638 4.49645C27.4385 4.33687 27.3728 4.12096 27.4667 3.84873C27.7765 2.92878 28.0769 2.01822 28.3867 1.09827C28.4711 0.844818 28.5369 0.581976 28.6495 0.337908C28.7621 0.0844534 28.9781 -0.0281933 29.2503 0.02813C29.5131 0.0844534 29.6445 0.281585 29.6633 0.563202Z" fill="#007AFF"/>
<path d="M15.7614 25.092C15.7238 25.4769 15.5643 25.6271 15.3202 25.6928C15.0761 25.7585 14.8508 25.6834 14.757 25.4581C14.466 24.7353 14.1937 24.0031 13.9403 23.2709C13.8558 23.0268 13.9778 22.764 14.2219 22.7076C14.4002 22.6607 14.757 22.7076 14.8039 22.8203C15.17 23.5807 15.4798 24.388 15.7614 25.092Z" fill="#007AFF"/>
<path d="M22.1542 23.1582C22.126 23.2427 22.1073 23.3366 22.0791 23.4211C21.8444 24.0406 21.6191 24.6696 21.375 25.2891C21.2249 25.674 20.9996 25.796 20.6804 25.6834C20.3425 25.5614 20.2392 25.3079 20.38 24.923C20.6147 24.2847 20.8494 23.6558 21.084 23.0268C21.1967 22.7358 21.422 22.5762 21.713 22.6701C21.9007 22.7358 22.0415 22.9423 22.2011 23.0831C22.1917 23.1019 22.173 23.1301 22.1542 23.1582Z" fill="#007AFF"/>
<path d="M31.5785 8.8991C31.1279 8.88971 30.8557 8.533 31.0059 8.21383C31.3063 7.55673 31.6442 6.91839 31.9916 6.28945C32.1324 6.03599 32.4046 5.97967 32.6674 6.12987C32.9209 6.27068 33.0335 6.50536 32.9021 6.77759C32.6017 7.40653 32.2826 8.03547 31.9446 8.63626C31.8601 8.77706 31.6536 8.84277 31.5785 8.8991Z" fill="#007AFF"/>
<path d="M5.05975 8.46728C4.96588 8.56115 4.84384 8.74889 4.68426 8.83338C4.47774 8.93664 4.22429 8.90848 4.09287 8.68318C3.74554 8.03546 3.4076 7.38775 3.08843 6.72125C2.97579 6.47719 3.10721 6.26128 3.3325 6.12986C3.55779 5.98905 3.83941 6.00782 3.96144 6.22373C4.34632 6.89961 4.68426 7.60365 5.04097 8.29831C5.05036 8.32647 5.04097 8.34524 5.05975 8.46728Z" fill="#007AFF"/>
<path d="M10.9272 9.32146C11.819 10.861 11.819 12.3723 10.9272 13.9306C12.5512 14.6346 13.4523 15.8831 13.6307 17.6479C15.3861 17.2724 16.8224 17.7606 18.0051 19.0842C19.1879 17.77 20.6242 17.263 22.3796 17.6479C22.5579 15.9019 23.431 14.6534 25.0831 13.94C24.6795 13.1984 24.4072 12.4474 24.4072 11.6213C24.4072 10.7953 24.6607 10.0349 25.0831 9.31207C23.4685 8.59864 22.5673 7.3783 22.3796 5.59473C20.6242 6.02654 19.1692 5.54779 18.0051 4.15848C16.8317 5.49147 15.3767 5.96083 13.6495 5.6135C13.5744 5.97961 13.5087 6.32693 13.4242 6.66487C13.3209 7.05914 13.0581 7.24688 12.7577 7.17178C12.4479 7.0873 12.3165 6.80568 12.3916 6.41142C12.4761 5.96083 12.5418 5.51024 12.5793 5.05966C12.6263 4.47765 12.8516 4.32745 13.4336 4.4401C13.9123 4.53397 14.4004 4.62785 14.8886 4.61846C15.8179 4.59968 16.5595 4.13971 17.1697 3.46383C17.3011 3.31363 17.4231 3.15405 17.5546 3.00386C17.8549 2.6753 18.1553 2.68469 18.4557 3.01324C18.5308 3.09773 18.6059 3.1916 18.681 3.28547C19.6761 4.49642 20.934 4.89069 22.4453 4.47765C22.5392 4.44949 22.6237 4.42133 22.7175 4.40255C23.1118 4.31807 23.3746 4.5152 23.4216 4.92824C23.4591 5.26618 23.4873 5.60412 23.553 5.93267C23.7407 6.9371 24.3134 7.67869 25.2051 8.16683C25.421 8.27948 25.6463 8.38273 25.8716 8.46722C26.4912 8.71129 26.5475 8.96474 26.2377 9.53736C25.9843 9.98795 25.7496 10.4761 25.6088 10.9736C25.3741 11.7903 25.59 12.5694 25.9749 13.311C26.0594 13.48 26.1626 13.6302 26.2659 13.7898C26.5569 14.2685 26.463 14.5595 25.9373 14.766C25.928 14.766 25.9186 14.7754 25.8998 14.7754C24.3134 15.3481 23.5061 16.4839 23.431 18.1642C23.4028 18.8026 23.1587 18.9715 22.5486 18.8026C20.9246 18.352 19.601 18.7838 18.5778 20.1262C18.1929 20.6237 17.8549 20.6331 17.4795 20.1449C16.4563 18.8026 15.1327 18.3614 13.5087 18.8026C12.8609 18.9809 12.6357 18.8213 12.6075 18.1548C12.523 16.4651 11.6969 15.3293 10.0917 14.766C9.56603 14.5783 9.46277 14.2591 9.78193 13.7898C10.7488 12.3629 10.7582 10.9361 9.79132 9.49981C9.46277 9.00229 9.56603 8.71129 10.1105 8.49538C10.3827 8.39212 10.6456 8.27009 10.9178 8.15744C11.2463 8.02602 11.5373 8.11989 11.6688 8.39212C11.7908 8.66435 11.6875 8.93658 11.3965 9.10555C11.237 9.18065 11.0961 9.23697 10.9272 9.32146Z" fill="#007AFF"/>
<path d="M21.1775 8.01664C21.0742 8.22316 21.0367 8.35458 20.9522 8.46723C19.2813 10.7765 17.601 13.0857 15.9207 15.395C15.686 15.7142 15.3668 15.7893 15.1134 15.6015C14.8599 15.4138 14.8317 15.0852 15.0664 14.7661C16.7467 12.4568 18.4271 10.1475 20.098 7.84767C20.2669 7.62238 20.4735 7.45341 20.7457 7.59422C20.9147 7.66931 21.0367 7.86645 21.1775 8.01664Z" fill="#007AFF"/>
<path d="M15.7616 10.7014C14.8792 10.692 14.1846 9.99737 14.1939 9.10559C14.2033 8.23258 14.9168 7.51915 15.7898 7.52853C16.6534 7.53792 17.3762 8.27013 17.3668 9.13375C17.3574 10.0161 16.6346 10.7108 15.7616 10.7014ZM15.2547 9.11497C15.2453 9.39659 15.4706 9.63127 15.7428 9.64066C16.0432 9.65005 16.2873 9.41537 16.2779 9.12436C16.2779 8.85213 16.0432 8.61745 15.7616 8.60806C15.4894 8.60806 15.2641 8.83336 15.2547 9.11497Z" fill="#007AFF"/>
<path d="M20.2389 15.6955C19.3659 15.6955 18.6431 14.9914 18.6431 14.1184C18.6431 13.2548 19.3659 12.532 20.2295 12.5226C21.1025 12.5226 21.8159 13.2266 21.8159 14.109C21.8159 15.0008 21.1213 15.6955 20.2389 15.6955ZM20.7458 14.1184C20.7458 13.8368 20.5205 13.6021 20.2389 13.6021C19.9667 13.5927 19.7226 13.8274 19.7132 14.0996C19.7038 14.3906 19.9385 14.6347 20.2389 14.6347C20.5205 14.6253 20.7458 14.4 20.7458 14.1184Z" fill="#007AFF"/>
</g>
<defs>
<clipPath id="clip0_1358_880">
<rect width="35.9812" height="36" fill="white" transform="translate(0.00927734 0.5)"/>
</clipPath>
</defs>
</svg>
