<svg width="34" height="37" viewBox="0 0 34 37" fill="none" xmlns="http://www.w3.org/2000/svg">
<g clip-path="url(#clip0_1358_805)">
<path d="M28.7073 10.0706C26.8004 10.0706 24.8799 10.0706 22.9457 10.0706C20.2624 10.0706 17.5927 10.057 14.9094 10.057C14.7732 10.057 14.6097 10.0978 14.5008 10.0433C14.3101 9.948 14.1466 9.78455 13.9695 9.64834C14.1602 9.49851 14.3237 9.32144 14.528 9.21247C14.6506 9.14437 14.8413 9.19885 15.0047 9.19885C19.2953 9.21247 23.5859 9.21247 27.8765 9.22609C28.1761 9.22609 28.4622 9.22609 28.7618 9.22609C29.1432 8.09556 29.8515 7.34641 31.0365 7.2102C32.2896 7.06037 33.461 7.864 33.8015 9.06264C34.1285 10.234 33.6109 11.5416 32.4667 12.032C31.881 12.2772 31.7857 12.6041 31.7993 13.1489C31.8265 14.9469 31.8129 16.7312 31.8129 18.5292C31.8129 19.9457 31.2272 20.5178 29.8379 20.5178C27.3452 20.5178 24.8526 20.5178 22.3191 20.5178C21.9241 21.8799 21.0796 22.6971 19.6358 22.6835C18.4781 22.6699 17.6472 21.9344 17.1704 20.545C17.007 20.5314 16.8299 20.5042 16.6529 20.5042C13.0433 20.5042 9.43378 20.5042 5.82425 20.4906C5.402 20.4906 5.18407 20.5723 5.04786 21.0218C4.80268 21.7709 4.25785 22.3021 3.49508 22.5201C3.10007 22.6427 3.03197 22.8334 3.03197 23.2011C3.04559 25.3532 3.03197 27.5189 3.04559 29.671C3.04559 30.3793 3.27714 30.6245 3.97181 30.6381C5.06148 30.6517 6.15115 30.6245 7.24082 30.6517C7.63583 30.6654 7.77204 30.5019 7.90825 30.1614C8.30325 29.1262 9.20223 28.5405 10.2783 28.5405C11.3543 28.5405 12.2942 29.1262 12.6619 30.1342C12.8254 30.57 13.0433 30.6654 13.4519 30.6517C15.7403 30.6381 18.0422 30.6381 20.3305 30.6381C20.5348 30.6381 20.7664 30.5973 20.9298 30.679C21.0933 30.7607 21.2703 30.965 21.2976 31.1421C21.3112 31.2511 21.0796 31.4418 20.9162 31.5099C20.7664 31.578 20.562 31.5371 20.3714 31.5371C18.083 31.5371 15.7811 31.5507 13.4928 31.5371C13.0706 31.5371 12.8118 31.5916 12.6347 32.0683C12.2669 33.0899 11.3135 33.6892 10.251 33.662C9.14775 33.6347 8.33049 33.1035 7.92187 32.0819C7.74479 31.6188 7.49962 31.5371 7.07737 31.5507C6.09667 31.578 5.12958 31.5643 4.14888 31.5643C2.74593 31.5643 2.13299 30.9514 2.13299 29.5212C2.13299 27.4508 2.11937 25.3941 2.14661 23.3237C2.14661 22.8878 2.06489 22.6427 1.6154 22.4656C0.525725 22.0161 -0.0735935 20.8719 0.117099 19.755C0.307791 18.6245 1.20677 17.7391 2.35092 17.5757C3.42697 17.4259 4.57113 18.0252 4.99338 19.0876C5.18407 19.578 5.44287 19.6597 5.90598 19.6461C9.47465 19.6324 13.0297 19.6324 16.5984 19.6461C17.007 19.6461 17.2386 19.5643 17.4156 19.1421C17.8515 18.0933 18.6824 17.5485 19.8129 17.5621C20.9026 17.5757 21.7198 18.1342 22.1285 19.1557C22.2919 19.5643 22.5098 19.6324 22.8912 19.6324C25.2068 19.6188 27.5223 19.6324 29.8379 19.6188C30.7641 19.6188 30.9956 19.3737 31.0093 18.4474C31.0093 16.6086 31.0093 14.7698 31.0229 12.931C31.0229 12.5223 30.9684 12.2908 30.5053 12.141C29.5791 11.8958 29.1977 11.3646 28.7073 10.0706ZM31.3089 11.4463C32.2488 11.4599 33.0115 10.7244 33.0388 9.79817C33.066 8.84471 32.276 8.04107 31.3362 8.05469C30.4236 8.05469 29.6472 8.83109 29.6336 9.74369C29.6336 10.6835 30.3827 11.4327 31.3089 11.4463ZM2.6642 18.4611C1.71074 18.4611 0.988836 19.1966 0.988836 20.1364C0.988836 21.0899 1.71074 21.8254 2.65058 21.839C3.63129 21.839 4.39406 21.0899 4.36682 20.1228C4.33957 19.1693 3.60405 18.4474 2.6642 18.4611ZM19.7584 21.8254C20.6846 21.8254 21.4474 21.0626 21.4474 20.15C21.4474 19.2374 20.6846 18.4747 19.7584 18.4611C18.7913 18.4474 18.0286 19.2102 18.0422 20.1773C18.0694 21.0899 18.8186 21.8254 19.7584 21.8254ZM11.9809 31.0876C11.9673 30.1614 11.1909 29.4122 10.2647 29.4259C9.33844 29.4395 8.60291 30.2023 8.60291 31.1421C8.61653 32.1092 9.39292 32.872 10.3464 32.8311C11.2726 32.7902 11.9945 32.0275 11.9809 31.0876Z" fill="#007AFF"/>
<path d="M9.09376 13.4349C9.57049 13.4349 9.91102 13.3804 10.2243 13.4485C10.4422 13.4894 10.6193 13.6937 10.81 13.8299C10.6057 13.9661 10.4014 14.1977 10.1971 14.2113C8.99841 14.2522 7.78616 14.2249 6.58752 14.2249C6.28786 14.2249 5.9882 14.2658 5.70216 14.1977C5.52509 14.1568 5.4025 13.9389 5.25267 13.7891C5.41612 13.6665 5.56595 13.4758 5.74302 13.4485C6.09717 13.3941 6.46493 13.4349 6.95528 13.4349C6.80545 13.1216 6.69649 12.9173 6.60114 12.6994C5.67492 10.7244 4.63973 8.77657 3.84972 6.73344C2.97798 4.49961 3.74075 2.37475 5.60681 1.20336C7.20046 0.195413 9.28445 0.277138 10.7828 1.40767C12.3083 2.56545 13.0302 4.48599 12.3628 6.29757C11.6136 8.28622 10.6602 10.1931 9.77481 12.1409C9.59773 12.5359 9.36618 12.9037 9.09376 13.4349ZM8.00409 13.5847C8.24927 13.2034 8.41272 12.999 8.52168 12.7675C9.48877 10.7788 10.4422 8.80381 11.3685 6.81516C11.5183 6.48826 11.6136 6.13412 11.6954 5.77998C12.1993 3.68236 10.5784 1.47578 8.42634 1.32595C5.60681 1.10801 3.5773 3.57339 4.53076 6.25671C5.18457 8.10915 6.11079 9.86624 6.94166 11.6506C7.2277 12.2499 7.59546 12.822 8.00409 13.5847Z" fill="#007AFF"/>
<path d="M28.2167 35.7051C28.707 35.7051 29.0884 35.6642 29.4698 35.7187C29.6333 35.746 29.7558 35.9911 29.8921 36.141C29.7422 36.2636 29.606 36.4679 29.4562 36.4679C27.8898 36.4951 26.3234 36.4951 24.757 36.4679C24.6208 36.4679 24.4709 36.2499 24.3347 36.1274C24.4709 35.9911 24.6072 35.746 24.757 35.7187C25.1247 35.6506 25.5198 35.7051 26.0237 35.7051C25.8739 35.3918 25.7649 35.1875 25.656 34.9696C24.7025 32.8992 23.5992 30.8697 22.8364 28.7312C21.8149 25.8981 23.6809 23.1739 26.6639 22.7925C29.6469 22.4247 32.3166 25.326 31.5129 28.2C31.0907 29.7119 30.3415 31.1421 29.715 32.5859C29.2655 33.6075 28.7615 34.5882 28.2167 35.7051ZM27.1815 35.746C27.4131 35.351 27.6582 35.0104 27.8353 34.6291C28.816 32.4633 29.8784 30.3385 30.7229 28.1183C31.2541 26.7153 30.5322 25.1217 29.2791 24.2499C27.9851 23.351 26.2961 23.3373 25.0022 24.2227C23.7082 25.1081 23.0816 26.6608 23.4902 28.1455C24.2258 30.788 25.5879 33.1444 26.9091 35.528C26.9363 35.5961 27.0317 35.637 27.1815 35.746Z" fill="#007AFF"/>
<path d="M5.25207 5.03092C5.26569 3.47814 6.50519 2.25226 8.08521 2.2795C9.62437 2.29312 10.823 3.519 10.823 5.05816C10.823 6.61094 9.55627 7.87768 8.01711 7.86406C6.46432 7.85044 5.23844 6.59732 5.25207 5.03092ZM6.04208 5.05816C6.04208 6.16145 6.91381 7.04681 8.01711 7.04681C9.13402 7.07405 10.033 6.16145 10.033 5.03092C10.0194 3.96849 9.14764 3.09675 8.09883 3.08313C6.94106 3.05589 6.04208 3.92763 6.04208 5.05816Z" fill="#007AFF"/>
<path d="M27.1001 30.1342C25.5337 30.1342 24.3078 28.8947 24.3214 27.3147C24.335 25.7891 25.5609 24.5496 27.0864 24.536C28.6256 24.5224 29.906 25.7891 29.906 27.3283C29.906 28.8947 28.6665 30.1342 27.1001 30.1342ZM25.125 27.3147C25.1114 28.4316 25.9559 29.3033 27.0592 29.3305C28.1897 29.3578 29.1023 28.4724 29.1023 27.3419C29.1023 26.2659 28.1897 25.3396 27.1273 25.3396C26.0376 25.326 25.1387 26.225 25.125 27.3147Z" fill="#007AFF"/>
</g>
<defs>
<clipPath id="clip0_1358_805">
<rect width="33.8207" height="36" fill="white" transform="translate(0.0898438 0.5)"/>
</clipPath>
</defs>
</svg>
