<svg width="24" height="24" viewBox="0 0 24 24" fill="none" xmlns="http://www.w3.org/2000/svg">
<path d="M2.00003 8.86091V16.8C2.00003 18.5674 3.43271 20 5.20001 20H17.9999C19.7673 20 21.1999 18.5674 21.1999 16.8V7.2C21.1999 5.43269 19.7673 4 17.9999 4H5.20001C3.43271 4 2.00003 5.43269 2.00003 7.2V8.86091ZM5.20001 5.6H17.9999C18.8836 5.6 19.5999 6.31635 19.5999 7.2V8.38379L11.6001 12.6914L3.60002 8.38362V7.2C3.60002 6.31635 4.31637 5.6 5.20001 5.6ZM3.60002 10.2008L11.2208 14.3044C11.4576 14.4319 11.7426 14.4319 11.9794 14.3044L19.5999 10.201V16.8C19.5999 17.6837 18.8836 18.4 17.9999 18.4H5.20001C4.31637 18.4 3.60002 17.6837 3.60002 16.8V10.2008Z" fill="white"/>
</svg>
