<svg width="24" height="24" viewBox="0 0 24 24" fill="none" xmlns="http://www.w3.org/2000/svg">
<path d="M12 4.6215C14.403 4.6215 14.688 4.6305 15.6368 4.674C16.6178 4.719 17.628 4.9425 18.3428 5.65725C19.0643 6.37875 19.281 7.37925 19.326 8.36325C19.3695 9.312 19.3785 9.597 19.3785 12C19.3785 14.403 19.3695 14.688 19.326 15.6368C19.2817 16.6125 19.053 17.6325 18.3428 18.3428C17.6213 19.0643 16.6215 19.281 15.6368 19.326C14.688 19.3695 14.403 19.3785 12 19.3785C9.597 19.3785 9.312 19.3695 8.36325 19.326C7.395 19.2817 6.3615 19.0478 5.65725 18.3428C4.9395 17.625 4.719 16.6148 4.674 15.6368C4.6305 14.688 4.6215 14.403 4.6215 12C4.6215 9.597 4.6305 9.312 4.674 8.36325C4.71825 7.39125 4.94925 6.36525 5.65725 5.65725C6.37725 4.93725 7.3815 4.719 8.36325 4.674C9.312 4.6305 9.597 4.6215 12 4.6215ZM12 3C9.55575 3 9.249 3.0105 8.289 3.054C6.89775 3.11775 5.51625 3.50475 4.5105 4.5105C3.501 5.52 3.11775 6.8985 3.054 8.289C3.0105 9.249 3 9.55575 3 12C3 14.4443 3.0105 14.751 3.054 15.711C3.11775 17.1007 3.50625 18.486 4.5105 19.4895C5.51925 20.4983 6.9 20.8822 8.289 20.946C9.249 20.9895 9.55575 21 12 21C14.4443 21 14.751 20.9895 15.711 20.946C17.1015 20.8822 18.4845 20.4945 19.4895 19.4895C20.4998 18.4793 20.8822 17.1015 20.946 15.711C20.9895 14.751 21 14.4443 21 12C21 9.55575 20.9895 9.249 20.946 8.289C20.8822 6.89775 20.4945 5.5155 19.4895 4.5105C18.4823 3.50325 17.0977 3.117 15.711 3.054C14.751 3.0105 14.4443 3 12 3Z" fill="white"/>
<path d="M12 7.37848C9.44773 7.37848 7.37848 9.44773 7.37848 12C7.37848 14.5522 9.44773 16.6215 12 16.6215C14.5522 16.6215 16.6215 14.5522 16.6215 12C16.6215 9.44773 14.5522 7.37848 12 7.37848ZM12 15C10.3432 15 8.99998 13.6567 8.99998 12C8.99998 10.3432 10.3432 8.99998 12 8.99998C13.6567 8.99998 15 10.3432 15 12C15 13.6567 13.6567 15 12 15Z" fill="white"/>
<path d="M16.8045 8.27548C17.401 8.27548 17.8845 7.79195 17.8845 7.19548C17.8845 6.59901 17.401 6.11548 16.8045 6.11548C16.208 6.11548 15.7245 6.59901 15.7245 7.19548C15.7245 7.79195 16.208 8.27548 16.8045 8.27548Z" fill="white"/>
</svg>
