<svg width="24" height="24" viewBox="0 0 24 24" fill="none" xmlns="http://www.w3.org/2000/svg">
<path d="M16.2627 20.6975C15.3167 20.6975 14.3204 20.4715 13.2906 20.0361C12.286 19.6091 11.273 19.0231 10.2851 18.3115C9.30553 17.5915 8.35948 16.7877 7.46367 15.9087C6.57623 15.0129 5.77251 14.0668 5.06088 13.0956C4.34088 12.091 3.76321 11.0863 3.35297 10.1152C2.91763 9.07704 2.69995 8.07239 2.69995 7.12635C2.69995 6.47332 2.81716 5.85379 3.04321 5.27611C3.27762 4.6817 3.65437 4.12914 4.16507 3.65193C4.80972 3.01565 5.54646 2.69751 6.33344 2.69751C6.65995 2.69751 6.99483 2.77286 7.27948 2.90681C7.60599 3.05751 7.88227 3.28356 8.0832 3.58495L10.0255 6.32263C10.2013 6.56542 10.3353 6.79984 10.4274 7.03425C10.5362 7.28542 10.5948 7.53658 10.5948 7.77937C10.5948 8.09751 10.5027 8.40728 10.3269 8.7003C10.2013 8.92635 10.0088 9.16914 9.76599 9.41193L9.19669 10.0063C9.20506 10.0315 9.21343 10.0482 9.2218 10.065C9.32227 10.2408 9.5232 10.5422 9.90832 10.9943C10.3185 11.4631 10.7037 11.8901 11.0888 12.2836C11.5827 12.7691 11.993 13.1543 12.3781 13.4724C12.8553 13.8743 13.1651 14.0752 13.3492 14.1673L13.3325 14.2091L13.9437 13.6063C14.2032 13.3468 14.4544 13.1543 14.6971 13.0287C15.1576 12.744 15.7437 12.6938 16.3297 12.9366C16.5474 13.0287 16.7818 13.1543 17.033 13.3301L19.8125 15.3059C20.1223 15.5152 20.3483 15.7831 20.4823 16.1012C20.6078 16.4194 20.6664 16.7124 20.6664 17.0054C20.6664 17.4073 20.5743 17.8091 20.3985 18.1859C20.2227 18.5626 20.005 18.8891 19.7288 19.1905C19.2516 19.718 18.7325 20.0947 18.1297 20.3375C17.552 20.5719 16.9241 20.6975 16.2627 20.6975ZM6.33344 3.95332C5.87297 3.95332 5.44599 4.15425 5.03576 4.55611C4.65065 4.91611 4.38274 5.3096 4.2153 5.73658C4.03948 6.17193 3.95576 6.63239 3.95576 7.12635C3.95576 7.90495 4.13995 8.75053 4.50832 9.62123C4.88507 10.5087 5.41251 11.4296 6.08227 12.3505C6.75204 13.2715 7.5139 14.1673 8.35111 15.0129C9.18832 15.8417 10.0925 16.6119 11.0218 17.2901C11.926 17.9515 12.8553 18.4873 13.7762 18.8724C15.2078 19.4836 16.5474 19.6259 17.6525 19.1654C18.0795 18.9896 18.4562 18.7217 18.7995 18.3366C18.992 18.1273 19.1427 17.9012 19.2683 17.6333C19.3688 17.424 19.419 17.2063 19.419 16.9887C19.419 16.8547 19.3939 16.7208 19.3269 16.5701C19.3018 16.5198 19.2516 16.4277 19.0925 16.3189L16.313 14.3431C16.1455 14.2259 15.9948 14.1422 15.8525 14.0836C15.6683 14.0082 15.593 13.9329 15.3083 14.1087C15.1409 14.1924 14.9902 14.318 14.8227 14.4854L14.1865 15.1133C13.8599 15.4315 13.3576 15.5068 12.9725 15.3645L12.7465 15.264C12.4032 15.0798 12.0013 14.7952 11.5576 14.4184C11.1558 14.0752 10.7204 13.6733 10.193 13.1543C9.78273 12.7356 9.3725 12.2919 8.94553 11.798C8.55204 11.3375 8.26739 10.944 8.09157 10.6175L7.99111 10.3663C7.94088 10.1738 7.92413 10.065 7.92413 9.94774C7.92413 9.64635 8.03297 9.37844 8.24227 9.16914L8.87018 8.51611C9.03762 8.34867 9.1632 8.1896 9.24692 8.04728C9.3139 7.93844 9.33901 7.84635 9.33901 7.76263C9.33901 7.69565 9.3139 7.59518 9.27204 7.49472C9.21343 7.36077 9.12134 7.21007 9.00413 7.051L7.06181 4.30495C6.97809 4.18774 6.87762 4.10402 6.75204 4.04542C6.61809 3.98681 6.47576 3.95332 6.33344 3.95332ZM13.3325 14.2175L13.1985 14.7868L13.4246 14.2008C13.3827 14.1924 13.3492 14.2008 13.3325 14.2175Z" fill="white"/>
</svg>
